<svg width="681" height="640" viewBox="0 0 681 640" fill="none" xmlns="http://www.w3.org/2000/svg">
<path d="M548.6 486.8C552.7 487.5 552.5 488.2 553 488.2C553.6 488.3 561 484.6 561 484.6C561 484.6 582.9 473.8 584.1 473.1L599.9 453.2L612.1 458.8C612.1 458.8 594.3 480 593.2 480.9C592.1 481.8 560.6 492.9 557.9 493.9C557.9 493.9 555.2 496.4 553.4 498C551.6 499.6 549.2 500.1 548.7 500.5C547.2 501.3 545.5 501.9 543.9 502.2C541.5 502.7 543.5 501.1 543.5 501.1C543.5 501.1 547.7 499.3 547.5 499C547.3 498.7 545.1 499.9 542.5 500.5C541.8 500.7 541.1 500.8 540.5 501C538.9 501.3 538.2 500.4 539.8 499.8C540.5 499.5 541.3 499.2 542.1 499C542.9 498.8 543.5 498.4 544.2 498.2C544.9 498 545.7 497.7 546.3 497.3C546.2 497.2 546.4 497 545.7 497.1C544.8 497.3 543.1 498.1 541.8 498.2C541 498.3 539.5 498.6 539.5 498.6C539.5 498.6 536.8 498.9 536.8 498.5C536.8 497.7 538.4 497.2 539.5 497.2C540.2 496.9 541 496.7 541.8 496.6C541.8 496.6 545 495.4 544.8 494.9C544.7 494.7 542.8 495 540.8 495.1C538.7 495.3 537.1 495.3 537 494.8C536.8 494.1 538.5 493.9 538.5 493.9C538.5 493.9 540 493.7 540.5 493.6C541.1 493.5 542.8 492.9 542.8 492.9C542.8 492.9 548.6 490.8 548.4 490.3C548.2 489.9 547.2 489 546.8 489C546.4 489 545.7 489.4 545.3 489.4C544.9 489.4 544 489.3 543.9 488.8C543.8 488.3 546.1 487.2 546.1 487.2C546.1 487.2 547.4 486.6 548.6 486.8Z" fill="#F8A492"/>
<path d="M588.9 465.6C588.9 465.6 592.8 469.2 594.5 470.4C595.9 471.4 602.5 474.6 602.5 474.6C602.5 474.6 609.1 464.4 612 459.4C615.5 453.2 617.9 444.1 617.1 443.8C614.8 443.1 611.6 442.7 608.6 444C598.4 448.6 588.9 465.6 588.9 465.6Z" fill="#355389"/>
<path d="M552.4 492.1C550.6 492.4 548.8 492 548.1 490.4C547.9 492.4 550.8 493.3 552.4 492.1Z" fill="#FE875E"/>
<path d="M61.6 421C61.9 415.1 61 409.3 58.3 403.8C56 399.1 50.4 396.4 45.3 396.4C29.1 396.4 27 417.9 16.7 426.2C13.5 428.7 10 430.8 7.00001 433.5C-3.99999 443.6 0.900012 462.3 11.1 471.1C18.1 477.2 29.1 480.7 37.8 475.9C42.3 473.4 45.7 469.2 48.2 464.7C51.7 458.2 53.9 450.8 56.4 443.8C59.1 436.5 61.3 428.9 61.6 421Z" fill="#13375B"/>
<path d="M64.2 449.6C59.1 434.2 52.4 434.5 52.4 434.5L57.8 467.2C60.9 466.3 65 464.5 68.1 463.6C67.2 458.7 65.5 453.4 64.2 449.6Z" fill="#F7CC7F"/>
<path d="M89.9 502L71.4 487.9C71.4 487.9 69.5 474.7 67 463C63.9 463.9 61.1 466.3 57.9 467.2L62.6 493.4L86.8 505.9L93.6 514.7L95.2 505.7L89.9 502Z" fill="#F48C7F"/>
<path d="M258.6 479.9C264.1 479.9 269.6 481.3 274.4 484.1C275 484.4 275.6 484.7 276.3 485C290.5 490.8 306.1 480 306.1 464.6V389H230.5C215.1 389 204.3 373.4 210.1 359.2C210.4 358.6 210.7 357.9 211 357.3C219.7 341.9 214.3 322.3 198.9 313.6C193.6 310.6 187.7 309.2 181.6 309.5C164.9 310.3 151.5 323.9 151.1 340.6C150.9 346.3 152.3 351.9 155 356.9C155.3 357.5 155.6 358.2 155.9 358.9C161.7 373.4 150.7 389.1 135.1 389.1H60.2V561.4C60.2 602 93.2 635 133.8 635H306.1V559.6C306.1 544.1 290.5 533.2 276.2 539.1C275.6 539.4 274.9 539.7 274.3 540C258.8 548.6 239.3 543.1 230.7 527.7C222.1 512.2 227.6 492.7 243 484.1C247.7 481.3 253.1 479.9 258.6 479.9Z" fill="#FA3636"/>
<path d="M422.5 438C422.8 432.5 424.4 427.1 427.4 422.4C427.8 421.8 428.1 421.2 428.4 420.5C434.9 406.6 424.8 390.5 409.5 389.8L333.9 386.3L330.4 461.9C329.7 477.3 313.6 487.4 299.7 480.8C299.1 480.5 298.4 480.2 297.8 479.8C282.8 470.4 263 474.9 253.6 489.8C250.4 494.9 248.7 500.9 248.7 506.9C248.7 523.6 261.7 537.6 278.4 538.9C284.1 539.4 289.8 538.2 294.9 535.7C295.5 535.4 296.2 535.1 296.9 534.9C311.6 529.8 326.8 541.5 326.1 557L322.6 631.9L494.8 639.9C535.4 641.8 569.9 610.4 571.8 569.8L579.8 397.6L504.5 394.1C489 393.4 477.5 408.5 482.6 423C482.8 423.7 483.1 424.3 483.4 425C491.3 440.8 484.9 460.1 469.1 468C453.3 475.9 434 469.5 426.1 453.7C423.4 448.8 422.3 443.4 422.5 438Z" fill="#414346"/>
<path d="M212 319C212.3 324.5 211.1 330.1 208.6 335C208.3 335.6 208 336.3 207.8 337C202.7 351.5 214.3 366.5 229.6 365.7L305.1 361.9L301.3 286.4C300.5 271.1 315.5 259.4 330 264.6C330.7 264.8 331.3 265.1 332 265.4C347.8 273.4 367.1 267 375 251.2C377.7 245.7 378.9 239.7 378.3 233.6C376.7 217 362.4 204.3 345.7 204.7C340 204.8 334.5 206.5 329.6 209.4C329 209.8 328.4 210.1 327.7 210.4C313.6 216.9 297.3 206.7 296.5 191.2L292.7 116.3L120.5 124.9C79.9 126.9 48.7 161.5 50.7 202.1L59.3 374.2L134.6 370.4C150.1 369.6 160.1 353.5 153.6 339.5C153.3 338.9 153 338.2 152.6 337.6C143.2 322.6 147.7 302.8 162.7 293.4C177.7 284 197.5 288.5 206.9 303.5C210 308.2 211.7 313.5 212 319Z" fill="#414346"/>
<path d="M366.6 277.3C361.1 277.3 355.6 275.9 350.8 273.1C350.2 272.8 349.6 272.5 348.9 272.2C334.7 266.4 319.1 277.2 319.1 292.6V368.2H394.7C410.1 368.2 420.9 383.8 415 398C414.7 398.6 414.4 399.3 414.1 399.9C405.4 415.3 410.8 434.9 426.2 443.6C431.5 446.6 437.5 448 443.5 447.7C460.2 446.9 473.6 433.3 474 416.6C474.2 410.9 472.8 405.3 470.1 400.3C469.8 399.7 469.5 399 469.2 398.3C463.4 383.8 474.4 368.1 490 368.1H565V195.9C565 155.3 532 122.3 491.4 122.3H319.1V197.7C319.1 213.2 334.7 224.1 349 218.2C349.7 217.9 350.3 217.6 350.9 217.3C366.4 208.7 385.9 214.2 394.5 229.6C403.1 245 397.6 264.6 382.2 273.2C377.5 275.9 372.1 277.3 366.6 277.3Z" fill="#FA3636"/>
<path d="M10.9 611C10.9 611 9.79997 618.9 7.79997 621.5C7.09997 622.4 5.89999 623.5 5.09999 625C3.89999 627.4 4.49999 631 5.49999 633C5.99999 634 5.49998 634 6.49998 634.4C9.69999 635.3 13 633.8 14.3 630.7C15.2 628.6 15.8 626.3 15.8 623.9C16.1 616.7 18.4 613 18.4 613L10.9 611Z" fill="#F7A491"/>
<path d="M45.3 614.7C45.3 614.7 46 623.6 45.4 626.6C45.1 628.2 43.4 631.4 44.2 632.8C45 634.3 45.9 634.6 45.9 634.6L66.2 634.9C67.3 634.9 66.6 634.2 65.7 633.5C64.2 632.4 63.1 631.7 58.4 629.4C58.1 629.2 57 628.5 56.6 628.3C55.5 627.6 54.5 626.7 53.7 625.7C52.2 624.1 52.1 616.2 52.1 616.2L45.3 614.7Z" fill="#F7A491"/>
<path d="M61.2 495.7C61.2 495.7 63.8 510.2 62.1 519.8C60.4 529.3 52.4 617.7 52.4 617.7L43.5 618.2C43.5 618.2 41.6 581.3 42 576.2C42.3 571.1 45 562.5 45 562.5L44.1 532.7L55.4 493.6L61.2 495.7Z" fill="#355389"/>
<path d="M34.8 492.6C34.8 492.6 27.8 503.2 26.1 512C24.4 520.8 27.3 547.8 24.1 559.4C22.4 565.6 15.7 575.3 14.7 583.3C13.7 591.4 9.70001 612.5 9.70001 612.5L18.6 614.3L39.4 561.6L55.7 513.9L59.9 489.4L34.8 492.6Z" fill="#466EB6"/>
<path d="M40.6 432.1C40.6 432.1 31.3 431.5 27.6 435.5C23.9 439.5 35.8 471.4 36.5 476.6C37.2 481.8 33.1 495.4 33.1 495.4C33.1 495.4 55 499.8 61.3 495.7C61.3 495.7 62 458.8 61.3 455.1C60.6 451.4 55 436.5 53.7 435.1C52.2 433.6 40.6 432.1 40.6 432.1Z" fill="#F7CC7F"/>
<path d="M43.7 419.6C43.7 419.6 43.7 419.9 43.5 420.4C43.1 422.7 41.5 430.1 40.4 432.2C39.1 434.7 44.9 442.6 50.4 441.6C52.1 441.3 49 434.3 49.2 433.6C49.5 432.2 49.9 430.3 50.3 428.3C50.5 427.2 50.8 426 50.9 425L52 419.5L43.7 419.6Z" fill="#F7A491"/>
<path d="M43.5 420.4C43.6 419.9 43.7 419.6 43.7 419.6L52 419.4L50.9 424.9C50.7 426 50.4 427.1 50.3 428.2C48.8 427.9 47.4 427.2 46.3 426.2C44.9 425 43.9 423.4 43.3 421.7C43.4 421.2 43.5 420.7 43.5 420.4Z" fill="#F47458"/>
<path d="M49.3 400.6C49.3 400.6 45.4 400.1 42.9 403.3C40.4 406.5 37.8 416.4 43.9 421.8C50 427.2 56.1 421.1 57 414.7C57.9 408.3 58.2 400.4 49.3 400.6Z" fill="#F7A491"/>
<path d="M58.8 414.6C58.1 416 56.8 416.8 56.1 416.4C55.3 415.9 55.3 414.4 56 413C56.7 411.6 58 410.8 58.7 411.2C59.4 411.6 59.5 413.1 58.8 414.6Z" fill="#F7A491"/>
<path d="M49.7 399.6C49.7 399.6 44.4 409 40.7 409.5C36.9 410 36.5 414.9 36.5 414.9C36.5 414.9 37.9 403.4 41.6 401.2C45.2 398.9 49.7 399.6 49.7 399.6Z" fill="#13375B"/>
<path d="M15 629.1C10.1 630 6.90002 627.1 5.20002 625C4.00002 627.4 3.4 631.1 4.3 633C5.1 634.8 7.5 634.7 9.3 634.8C11.3 634.9 12.8 633.8 13.7 632.1C14.2 631.2 14.7 630.2 15 629.1Z" fill="#F47458"/>
<path d="M56.5 628.5C51.1 629.9 47.2 629 45 628C44.4 629.6 43.7 631.7 44.1 632.8C44.6 634.2 45.3 634.6 45.9 634.6C50.8 634.7 63.9 634.9 67.6 634.9C67.9 634.9 68.2 634.6 68.2 634.3C68.2 634.1 68.2 634 68 633.9C67.1 632.9 57 628.7 56.5 628.5Z" fill="#F47458"/>
<path d="M41.7 411.8C42 413.5 41.4 415 40.3 415.2C39.2 415.4 38.1 414.3 37.8 412.6C37.5 410.9 38.1 409.4 39.2 409.2C40.3 408.9 41.4 410.1 41.7 411.8Z" fill="#F7A491"/>
<path d="M47.8 417.5L52.5 417.7C52.5 417.7 52.3 419.5 50.2 419.5C47.7 419.5 47.8 417.5 47.8 417.5Z" fill="white"/>
<path d="M452.3 39.3C452.9 39.3 454.5 39.9 456.9 44.3C459.9 50 464.3 67.3 464.3 67.3L451.1 72.2L449.4 68.6L446.6 40.9C446.7 40.9 452.2 39.3 452.3 39.3Z" fill="#DD513A"/>
<path d="M434.9 36.8C438.7 36.8 448 37.9 452.3 39.3C452.3 39.3 455.5 66.6 449.4 87.4C448 92.1 450.5 106.7 450.5 106.7L411.4 106.2C411.4 106.2 416 70.8 414.3 65.1C412.6 59.4 412.5 39.5 412.5 39.5C412.5 39.5 412.8 39.5 421.3 38C425.9 37.2 430.4 36.8 434.9 36.8Z" fill="#F47458"/>
<path d="M430.4 157.5C430.4 157.5 431.3 167.5 432.8 170.2C434.4 173 432.7 177.6 432.6 178.3C432.5 179 429.3 179.9 424.1 179.3C418.9 178.7 419 177.5 419.4 175.6C419.8 173.7 422.6 171.2 422.7 169.3C422.8 167.4 421.1 160.8 421.1 160.8L430.4 157.5Z" fill="#F7A491"/>
<path d="M446.2 98.5C446.2 98.5 473.2 97 479.2 100.6C485.2 104.2 474.9 122.1 474.9 122.1C474.9 122.1 456.1 121.2 419.4 123.4C410.7 123.9 409.9 100.7 411.6 98.8C413.2 96.9 446.2 98.5 446.2 98.5Z" fill="#E0973F"/>
<path d="M423.5 180.1C418.2 179.5 418.8 176.9 419.3 174.9C419.6 173.7 421.1 172.2 422 170.8C422.5 171.2 423.2 171.9 425.6 172.5C428 173.2 431.3 171.8 433.4 170.9C434 173.2 434.2 175.5 434.1 177.8C433.9 178.5 428.8 180.7 423.5 180.1Z" fill="#DD513A"/>
<path d="M426.4 117.8C427.5 126 432.8 166.6 432.8 166.6L420.4 168.1C420.4 168.1 405.2 115.1 406 107C406.8 98.9 412.5 98.2 412.5 98.2C412.5 98.2 423.5 96.2 426.4 117.8Z" fill="#F7CC7F"/>
<path d="M412.2 42.5C415.8 41.1 417.7 74 418.1 87.6C424.6 88.2 435.8 87.6 438.7 87.4C440 87.3 443.1 86.2 444.4 86C445.5 85.8 446.5 85.8 447.6 85.8C447.8 85.8 454.6 88.6 455.2 89.2C455.9 90 457.8 91.8 457.5 92.7C457.2 93.5 453.8 90.4 453.8 90.4L452.1 89.5C454.2 91.5 458.1 94.2 457.6 95.1C457 96.1 453.5 93.3 450.9 91.5C453.1 93.5 455.8 97 455.1 97.5C454.5 98 451.5 93.9 448.2 92.8C447 92.4 445.8 93.6 444.8 93.7C444.1 93.8 443 94 442.3 93.9L438.8 92.9C437.6 93 437.6 93.7 436.3 94C434.9 94.3 432.5 94.6 430.7 95.1C420.3 97.7 416.8 98.8 413.6 98.8C404.1 98.7 403.5 45.8 412.2 42.5Z" fill="#F7A491"/>
<path d="M405.3 73.4C404.6 59.5 404.7 42.4 412.5 39.5C415.6 38.3 421 45.3 420 73.7C415.8 74 409.7 74.3 405.3 73.4Z" fill="#DD513A"/>
<path d="M466.6 166C466.6 166 465.5 169.5 467.5 171.8C469.5 174.1 477.5 176.3 478.5 177.6C479.6 178.8 479.5 179.9 479.5 179.9L456.9 179.3L457.2 172.5L458.3 167.6L466.6 166Z" fill="#F7A491"/>
<path d="M468.8 172.9C468.8 172.9 463 175.2 460.2 173.8C457.4 172.4 457.5 172 456.7 172.6C455.9 173.1 455.6 179.5 455.6 179.5L481 180.3C482.8 180.3 483.7 178.9 482.2 177.9C481.3 177.3 480.4 176.7 479.4 176.2C477.4 175 468.8 172.9 468.8 172.9Z" fill="#DD513A"/>
<path d="M465.7 104.9C467.4 101.2 471.4 96.4 478.4 99.3C485.1 102 486.8 108.8 484.8 115.7C482.7 122.6 468.9 163.2 468.4 168.8L457.3 168.9C457.3 168.9 459.3 136.8 459.8 129C460.2 121.4 462.7 111.2 465.7 104.9Z" fill="#F7CC7F"/>
<path d="M483.6 67.5H446.7C445.7 67.5 444.9 68.1 444.5 69L433.1 96.8H412.8C412.2 96.8 411.8 97.3 411.8 97.8C411.8 98.4 412.3 98.8 412.8 98.8H470.7C472.3 98.8 473.7 97.9 474.4 96.4L485.8 70.8C486.4 69.6 485.8 68.2 484.6 67.6C484.3 67.5 484 67.5 483.6 67.5Z" fill="black"/>
<path d="M463.8 83.7C463.5 84.9 462.4 85.8 461.4 85.6C460.3 85.4 459.6 84.2 459.9 82.9C460.1 81.7 461.3 80.8 462.3 81C463.4 81.2 464 82.4 463.8 83.7Z" fill="white"/>
<path d="M443.7 3.4C442.6 3 441.5 2.60001 440.4 2.10001C439.2 1.50001 437.7 0.900017 436.7 0.700017C434.6 0.400017 431.1 0.600017 429.1 2.70002C426.7 5.30002 422.3 3.20001 423.2 17C424.2 32.6 432.9 30.9 433.1 30.6C433.3 30.3 440.8 20.6 440.8 20.6C440.8 20.6 443.4 26.4 443.4 26.2C443.5 26 457 7.9 443.7 3.4Z" fill="#0E2E35"/>
<path d="M437.1 31.8L437.9 37.4C437.9 37.4 439.6 45.4 437.4 47C435.2 48.6 428.2 37.1 428.2 37.1L429 22.9L437.1 31.8Z" fill="#F7A491"/>
<path d="M428.7 27.6C430.5 32.4 434.8 35.4 437.8 36.5L437.2 31.8L429 23L428.7 27.6Z" fill="#F47458"/>
<path d="M436.6 7.6C440.7 7 444.5 9.79999 445.1 13.8C445.2 14.2 445.2 14.7 445.2 15.1C445.2 17.5 444.9 19.9 444.6 22.3C443.6 28.8 439.2 34.4 436.3 33.9C433.4 33.4 426.1 27.8 427.4 18.6C428.1 13 431.8 8.4 436.6 7.6Z" fill="#F7A491"/>
<path d="M429.3 19.8C429 21.2 427.9 22.2 426.7 22C425.5 21.8 424.8 20.5 425 19.1C425.2 17.7 426.4 16.7 427.6 16.9C428.8 17 429.6 18.4 429.3 19.8Z" fill="#F7A491"/>
<path d="M427.7 16.8C427.7 16.8 431.2 17.7 432.5 15.4C433.8 13.1 438.5 8.29999 444.4 10.3C450.3 12.3 439.2 5.39999 438.7 5.39999H432.5C432.5 5.39999 428.1 8.99999 428 9.39999C427.8 9.79999 426.6 14.1 426.6 14.1L427.7 16.8Z" fill="#0E2E35"/>
<path d="M434.2 26.3L440.6 27.5C440.6 27.5 440 29.9 437.1 29.5C433.7 28.9 434.2 26.3 434.2 26.3Z" fill="white"/>
<path d="M325.8 472.4C326 473 326.2 473.6 326.5 474.1C328.5 477.7 333.2 483 333.2 483L336.8 474.9C336.8 474.9 336.2 472.3 335.2 468.7C331.7 469.5 328.3 470 325.8 472.4Z" fill="#F8A492"/>
<path d="M346.4 465.3C346.4 465.3 326.3 473.9 325.6 473.8C325.2 473.7 317.4 460.6 317.3 448.3C317.3 442.6 323.2 435.7 329.8 437.1C333.1 437.8 333.1 438.7 338 445.9C342.9 453 346.4 465.3 346.4 465.3Z" fill="#13375B"/>
<path d="M363.6 620.6L363.1 628.5C362.9 629.5 362.2 632 362.2 632.9C362.2 636.3 378.5 630 374.8 628.5C374.5 628.3 372.7 627.3 372.6 626.2C372.4 624.4 372 620.8 372 620.8L363.6 620.6Z" fill="#F7A491"/>
<path d="M374.8 628.5C374.8 628.5 371 629.6 369 629.8C367 630.1 364.5 627.8 363.1 628.4C361.6 629 361.6 634.9 361.6 634.9C361.6 634.9 382.1 636.6 387.8 634.8C390.2 634.2 382.6 630.9 374.8 628.5Z" fill="#DD513A"/>
<path d="M330.3 620.6L329.8 628.5C329.6 629.5 328.9 632 328.9 632.9C328.9 636.3 345.2 630 341.5 628.5C341.2 628.3 338.9 626.5 338.8 625.4C338.6 623.6 338.7 620.7 338.7 620.7L330.3 620.6Z" fill="#F7A491"/>
<path d="M341.6 628.5C341.6 628.5 337.8 629.6 335.8 629.8C333.8 630.1 331.3 627.8 329.9 628.4C328.4 629 328.3 634.9 328.3 634.9C328.3 634.9 348.9 636.9 354.7 634.8C356.9 634.1 349.4 630.9 341.6 628.5Z" fill="#DD513A"/>
<path d="M335.3 476.7L349.6 456.6C349.7 456.4 349.8 456.1 350 455.5C350.7 453.5 352.2 449.4 353.5 445.2C353.9 443.8 354.8 441.3 355.6 438.8C356.5 436.1 357.7 432.7 357.7 432.2C357.7 432.1 357.6 431.9 357.5 431.7C357 430.3 356.3 427.1 356 425.7C355.8 424.8 355.7 422.6 356.8 422.6C358.5 422.6 357.7 424.8 358.5 426.1C359 424.6 359.4 423.1 359.7 421.6L360 417.4C360 417.1 359.7 414.7 360.9 414.7H361C362.1 414.8 362.1 417.3 362.5 421.5C362.7 421 362.8 420.4 362.9 419.9C363 419.1 363.1 418.4 363.3 417.7C363.1 416.5 363.2 414.7 364.5 414.8C365.1 414.9 365.1 417.5 365.1 417.5C365.1 417.8 365.1 420.6 365.1 421.1C365.2 420.2 365.7 416.3 366.7 416.3C367.5 416.3 367.6 417.4 367.6 418.2C367.6 418.7 367.1 422.9 367 423.5C367.4 422.9 367.8 419.1 368.2 419.1C369.8 419.1 369.2 424.4 368.6 425.8C368.5 426.1 368.4 426.3 368.4 426.6C368.2 428 367.7 429.3 367 430.6C366 432.3 364.6 435 364.4 435.4C364.2 436.3 363.8 439.3 363.2 443.1C362.9 444.8 362.7 446.6 362.4 448.4C362.3 448.8 362.1 450.1 360.9 454.9C359.4 461.5 359.2 461.8 359.1 461.9C358.4 463.1 343 484 342.3 484.9L341.9 485.4L335.3 476.7Z" fill="#F7A491"/>
<path d="M361.9 429.9C361.9 429.9 360.7 426.9 358.7 426.9C359.5 426.7 360.2 426.8 360.8 427.3C361.9 428.1 361.9 429.9 361.9 429.9Z" fill="#F47458"/>
<path d="M331.9 424.2L330.1 435.9C330.1 435.9 337.1 441.5 341.2 440.3C344.6 439.3 342.3 434.8 342.3 434.8C342.3 434.8 340.5 428.6 341 425.3C341.5 422.1 331.9 424.2 331.9 424.2Z" fill="#F7A491"/>
<path d="M333.2 427.7C335.7 428.8 338.4 429.6 341.2 430C340.9 428.4 340.8 426.7 341 425.4C341.3 423.9 339.3 423.6 337.2 423.6C334.4 423.8 331.9 424.3 331.9 424.3L331.5 426.6C332 427 332.5 427.4 333.2 427.7Z" fill="#FE875E"/>
<path d="M323 410.7C322.7 410.7 325.8 423.7 330.5 426C335.2 428.2 342.3 427.1 343.7 423.6C345.2 419.7 339.8 406.4 333.1 404.7C326.4 403 323 410.7 323 410.7Z" fill="#F7A491"/>
<path d="M328.5 398.8C325.8 400.4 323.7 402.7 322.4 405.6C320.6 406.5 318.5 408.3 317.4 413.2C316.1 419.3 320.6 423.9 325.4 425.3C330.2 426.7 330.9 429.9 330.9 429.9L331.4 426.5C331.4 426.5 330.3 423.5 328.7 422C327.1 420.5 329.5 418.4 329.7 416.6C329.9 415.2 328.9 412.6 329.1 410.4C329.1 410.4 331.8 406.4 334.4 405.4C338.9 403.6 333.4 396 328.5 398.8Z" fill="#13375B"/>
<path d="M330.5 418.8C331.1 420.3 330.9 421.8 329.9 422.1C329 422.4 327.7 421.5 327.1 420C326.5 418.5 326.7 417 327.7 416.7C328.6 416.3 329.9 417.3 330.5 418.8Z" fill="#F7A491"/>
<path d="M348.2 477.1L375.8 472.6C375.8 472.6 372.6 464.7 371.6 464.7C370.6 464.7 350.7 473.3 350.7 473.3L349.1 476.5L348.2 477.1Z" fill="#F8A492"/>
<path d="M334 496C334 496 331.3 509.3 332.4 519.4C333.5 529.5 333.6 565.4 333.6 565.4L329.3 622.8L339.5 623C339.5 623 351.6 565.6 351.3 567.1C351 568.6 355.4 526.7 355.4 526.7L341 494.7L334 496Z" fill="#184655"/>
<path d="M336.7 495.4C336.7 495.4 334.9 507.4 337.2 512.7C339.5 518 356.5 569.6 356.7 573.8C356.9 578 362.6 624.6 362.6 624.6L374.4 624.3L377 572.6L371.6 507.6L366.4 491.2L336.7 495.4Z" fill="#13375B"/>
<path d="M330 435.9C330 435.9 332.9 437.8 335.6 437.6C338.3 437.4 342.2 434.9 342.2 434.9L341.7 433.1C341.7 433.1 334.7 432.1 334.5 432.2C334.3 432.2 330 435.9 330 435.9Z" fill="#F7A491"/>
<path d="M361.1 464.2C361.1 464.2 371.6 474 376.3 472.4C381 470.7 383 465 371.5 456.5C361.1 449 361.1 464.2 361.1 464.2Z" fill="#F8A492"/>
<path d="M368.2 476.4C366.7 467.9 355.4 441.7 354.5 436.8C354 434.4 348 434.4 342.2 434.7C336.1 435 330 435.8 330 435.8C330 435.8 324.6 436.7 322.2 438.9C319.8 441.1 319.2 447.3 322.6 459C325.3 468.2 328.7 473.3 330.3 480.1C330.6 482.4 330.9 484.6 331.3 487.2C331.9 497.3 331.3 510.5 331.3 510.5C331.3 510.5 360.7 516.6 371.8 507.3C371.7 507.4 369.7 485.1 368.2 476.4Z" fill="#355389"/>
<path d="M375.7 458.3C375.7 458.3 364.2 467.8 363.5 467.8C363 467.8 347 456 343.3 446.3C341.3 440.9 345.6 434.9 350.4 434.9C353.8 434.9 355.3 435.8 362.1 441.5C368.9 447.2 375.7 458.3 375.7 458.3Z" fill="#466EB6"/>
<path d="M172.6 32.8C174.5 28.3 176.4 23.7 181.3 21.4C185.3 19.5 189.4 20.2 193 22.9C203 30.4 194.3 38.7 205.7 53C209.2 57.4 213.5 61 215.6 66.2C218.6 73.5 215 77 209.4 80.4C182.2 97 168 62.9 168.5 55C168.9 49.2 171.3 35.7 172.6 32.8Z" fill="#13375B"/>
<path d="M144.4 121.5C145.5 121.3 148.3 119.3 149.3 119.1C150.1 118.9 151.7 118.7 152.4 118.6C153.3 115.4 157.6 98 158.1 92.8C158.6 87.2 162.5 63.3 162.5 63.3L172.7 65.1C172.7 65.1 168.5 83.6 167.3 92.5C166.3 100.2 157.9 117.5 156.8 119.3C156.8 119.3 156.8 119.4 156.8 119.5C156.6 122.2 155.3 121.3 155.3 121.3L153.2 121.8C153.2 121.8 145.7 122.5 145.2 122.7C144.7 122.9 143.3 121.6 144.4 121.5Z" fill="#F7A491"/>
<path d="M171.4 49.3C164.2 51.7 160.2 71.2 160.2 71.2C160.2 71.2 171.4 74.4 174.3 72.7C174.3 72.7 177.6 58.2 178.7 58.7L171.4 49.3Z" fill="#6A97CE"/>
<path d="M115.9 155.2C114.4 159.1 113.3 163.1 112.5 167.2C112.5 167.5 112.9 169.1 112.9 169.5C108.5 175.5 102.1 176.8 96.7 177.2C99.4 174.5 103.5 171.9 103.7 171.1C105 165.9 106 160.6 106.5 155.3C109.9 156.8 112.2 155.5 115.9 155.2Z" fill="#F7A491"/>
<path d="M178.4 90.4L188.1 117.7C188.1 117.7 172.5 120.6 166.7 121.7C160.9 122.8 128.4 124.2 127.5 124.8C126.9 125.2 120.2 147 117.2 158.9C113.8 159.7 108 158.7 104.9 157.7C106.6 140.6 112.6 113.4 114.6 110.4C117.6 105.6 178.4 90.4 178.4 90.4Z" fill="#256653"/>
<path d="M140.5 167.1C139.8 171.2 139.4 175.4 139.4 179.6C139.4 179.9 140.2 181.4 140.2 181.7C137 188.4 131 190.9 125.8 192.3C128 189.1 131.5 185.8 131.6 185C131.9 179.7 131.9 174.3 131.4 168.9C134.9 169.8 136.9 168.2 140.5 167.1Z" fill="#F7A491"/>
<path d="M189.7 91.8L193.5 98.2C198.6 107 195.7 118.3 186.9 123.4C186.1 123.9 185.2 124.3 184.3 124.6L184.1 124.7C178.6 126.8 146.9 134.3 146.2 135.1C145.7 135.6 143.2 158.3 142.4 170.6C139.2 172 133.3 172.2 130.1 171.7C128.5 154.5 129.4 126.7 130.7 123.4C132.9 118.1 189.7 91.8 189.7 91.8Z" fill="#327F6B"/>
<path d="M138.9 179.8C139.7 178.9 142.8 184 143.6 185.1C144.5 186.3 144.2 187.2 144.1 187.5C143.8 188 127.5 197.6 123.5 198.3C123.1 198.3 122.7 198.2 122.3 198C120.8 196.6 127.9 186.5 131.1 185.1C133.2 184.1 135.1 184 138.9 179.8Z" fill="#13375B"/>
<path d="M112 167.4C113 166.6 115.1 172.2 115.6 173.5C116.2 174.9 115.8 175.8 115.7 175.9C115.3 176.4 97.5 182.7 93.4 182.7C93 182.7 92.6 182.5 92.3 182.2C91 180.5 100 171.9 103.4 171.2C105.6 170.6 107.4 170.8 112 167.4Z" fill="#13375B"/>
<path d="M178.2 49.3C177.9 49.3 177.7 49.2 177.5 49.1C176.2 48.9 173.3 48.5 171 49.5C168.3 50.7 164 61.5 164.2 72.7C164.3 74.4 164.4 75.9 164.5 77C165.2 85.4 167.6 101.2 167.7 101.3C171 103.4 190.8 95.2 192.2 93.4C193.6 91.6 194.4 69.7 195 68.6L196.3 49.5C194.1 48.9 181.7 49.3 178.2 49.3Z" fill="#9BC1F9"/>
<path d="M186.2 42.3C186.2 42.3 184.9 48.9 185.2 51.5C185.5 54.1 184.2 62.5 178.7 62.5C173.2 62.5 177.6 51.8 178.2 49.3C178.7 46.7 178.8 38.8 178.8 38.8L186.2 42.3Z" fill="#F7A491"/>
<path d="M178.7 42.8C178.8 40.6 178.8 38.9 178.8 38.9L186.2 42.4C186.2 42.4 185.9 43.8 185.7 45.5C182.5 46 180.2 44.8 178.7 42.8Z" fill="#F47458"/>
<path d="M189 24C190.8 25.2 192.2 26.9 192.9 29C194 32.4 192.7 41.3 185.4 43.4C178 45.5 174.8 38.5 176.4 33.1C177.8 27.6 181.1 20.7 189 24Z" fill="#F7A491"/>
<path d="M175.4 31C175.6 32.5 176.3 33.6 177.2 33.5C178.1 33.4 178.6 32.1 178.5 30.7C178.3 29.2 177.6 28.1 176.7 28.2C175.8 28.3 175.2 29.5 175.4 31Z" fill="#F7A491"/>
<path d="M188.1 23.6C188.1 23.6 189.4 33.5 192.6 35.3C195.8 37.1 194.4 41.5 194.4 41.5C194.4 41.5 197.3 31.3 194.8 28.1C192.3 24.7 188.1 23.6 188.1 23.6Z" fill="#13375B"/>
<path d="M190.7 36.6C189.8 37.9 189.8 39.4 190.7 40C191.6 40.6 193 40 193.8 38.7C194.6 37.4 194.7 35.9 193.8 35.3C193 34.8 191.6 35.3 190.7 36.6Z" fill="#F7A491"/>
<path d="M180 37.2L185.2 38.5C185.2 38.5 184.6 40.5 182.3 40C179.5 39.3 180 37.2 180 37.2Z" fill="white"/>
<path d="M205.8 120.6L228.2 119.5C228.2 119.5 219 126.1 218.8 126.1C218.6 126.1 211.5 123.3 211.2 123.3C210.8 123.3 205.8 120.6 205.8 120.6Z" fill="#50BFA5"/>
<path d="M653.7 620.9C653.7 620.9 654.2 628.6 654.2 628.7C654.4 629.7 655 632.1 655 633C655 636.4 640.1 630.1 643.4 628.6C643.7 628.4 645.3 627.4 645.4 626.3C645.6 624.5 645.9 621 645.9 621L653.7 620.9Z" fill="#F7A491"/>
<path d="M643.2 628.7C644.9 629.2 646.7 629.6 648.5 630C650.3 630.3 652.7 628.1 653.9 628.7C655.3 629.3 655.3 635.1 655.3 635.1C655.3 635.1 636.5 636.8 631.2 635C629.1 634.4 636 631.1 643.2 628.7Z" fill="#F7CC7F"/>
<path d="M678.6 620.5C678.6 620.5 679.1 628.2 679.1 628.3C679.3 629.3 679.9 631.7 679.9 632.6C679.9 635.9 665 629.7 668.3 628.2C668.6 628 670.7 626.3 670.7 625.1C670.9 623.3 670.8 620.5 670.8 620.5H678.6Z" fill="#F7A491"/>
<path d="M668.3 628.2C670 628.7 671.8 629.1 673.6 629.5C675.4 629.8 677.8 627.6 679 628.2C680.4 628.8 680.5 634.6 680.5 634.6C680.5 634.6 661.9 635.4 656.3 634.5C654.1 634.2 661.1 630.6 668.3 628.2Z" fill="#F7CC7F"/>
<path d="M674.1 497.2C674.1 497.2 676.6 510.3 675.6 520.2C674.6 530.1 674.5 565.4 674.5 565.4L679.2 621.8L669 622C669 622 657.9 565.6 658.1 567.1C658.3 568.6 654.4 527.4 654.4 527.4L667.6 496L674.1 497.2Z" fill="#355389"/>
<path d="M670.6 488.8C670.6 488.8 682.1 500.9 677.8 514.1C676.1 519.4 660.1 570 659.9 574.1C659.7 578.2 654.5 624 654.5 624L643.6 623.7L641.2 572.9L644.3 504.4L650.9 492.9L670.6 488.8Z" fill="#466EB6"/>
<path d="M601 449.5C604.8 445.3 612.9 439.3 612.9 439.3C612.9 439.3 617.8 435.1 619.7 434.5C622.6 433.5 627.6 430.8 634.9 441.8C640.1 449.7 672.7 490.3 678.1 491.7L643.1 508.5C642.1 500.5 624.8 485.4 622.3 482.6C616.8 476.2 597.5 453.5 601 449.5Z" fill="#F47458"/>
<path d="M602.7 432.5L613.6 438.9C613.6 438.9 613.9 448.2 610.3 450.6C607.3 452.6 605 447.7 605 447.7C605 447.7 600.9 442.1 597.9 440.3C594.8 438.6 602.7 432.5 602.7 432.5Z" fill="#F7A491"/>
<path d="M604.5 436.6C604 439.1 603 441.5 601.7 443.7C600.5 442.4 599.1 441.1 597.9 440.4C596.5 439.6 597.4 437.8 598.8 436.2C600.8 434.2 602.7 432.5 602.7 432.5L604.8 433.7C604.9 434.5 604.6 435.9 604.5 436.6Z" fill="#F47458"/>
<path d="M596.9 416.5C597.1 416.3 606 427.4 604.9 432.7C603.8 437.9 598.4 442.7 594.6 441.4C590.4 439.9 582.7 426.8 585.5 420.4C588.3 414 596.9 416.5 596.9 416.5Z" fill="#F7A491"/>
<path d="M587.1 413C591 410.8 597.4 410.2 602.1 412.7C608 415.8 609.3 423.5 607.5 428.2C605.7 432.9 607.8 435.6 607.8 435.6L604.7 433.8C604.7 433.8 602.9 431 602.6 428.7C602.3 426.4 599.1 426.9 597.4 425.8C596.2 425 594.6 422.5 592.6 421.1C592.6 421.1 587.6 420.5 585.1 421.9C580.9 424.2 581.5 416.1 587.1 413Z" fill="#13375B"/>
<path d="M600 427.6C600 429.3 600.8 430.6 601.8 430.6C602.8 430.6 603.6 429.3 603.7 427.6C603.7 425.9 602.9 424.6 601.9 424.6C600.9 424.6 600.1 425.9 600 427.6Z" fill="#F7A491"/>
<path d="M590.8 436.5L595.5 433C595.5 433 596.7 434.9 594.7 436.5C592.3 438.4 590.8 436.5 590.8 436.5Z" fill="white"/>
<path d="M578.9 507.1C580.1 505.4 580.6 502.9 582.2 500.9C582.9 500.1 583.7 499.4 584.6 498.8C592.5 494.2 613.1 482.3 613.9 481.3C614.8 480.2 628.9 456.8 628.9 456.8L616.3 453.9L604 475.7C603 476.5 583.4 491 583.4 491C583.4 491 579.5 494 577.4 495.5C576.4 496.1 575.4 496.5 574.4 496.9C573.2 497.3 571.1 498.4 570.6 498.8C570.1 499.3 569.1 500.2 568.5 500.8C567.9 501.4 567.1 502 566.8 502.4C566.5 502.7 566.1 502.9 565.7 503.1C565.3 503.3 565.2 503.7 565.4 504.1C565.5 504.3 565.7 504.4 565.9 504.5C566.5 504.7 567.3 504.3 567.8 504C569.2 503.3 571 501.5 571 501.7C571.1 501.9 569.3 505.8 569.2 506.2C569.1 506.6 567 511.2 566.9 512.1C566.8 513.1 567.4 513.3 567.8 513C568.2 512.7 571.4 506.7 571.4 506.7C571.4 506.7 571.8 505.9 572 506.4C572.2 506.8 569.2 512.3 568.9 513.2C568.6 514.1 568.8 514.8 569.7 514.5C570.7 514.1 573.5 508.1 573.5 508.1C573.5 508.1 573.9 507.3 574.1 507.6C574.3 507.9 571.8 512.4 571.7 513C571.7 513.5 572.2 514.1 572.8 513.6C573.6 513.1 576.1 507.7 576.1 507.7C576.1 507.7 576.4 507.4 576.5 507.6C576.6 507.8 574.7 511.9 574.8 512.5C574.8 512.8 575.1 513 575.3 512.9C576.4 513.1 577.7 508.8 578.9 507.1Z" fill="#F8A492"/>
<path d="M625.6 469.3C625.6 469.3 621.5 468 618.8 466.8C617 466 609.3 462.2 609.3 462.2C609.3 462.2 612.6 448.2 614.9 443.1C623.1 424.6 632.5 437.3 633.8 440.4C636.6 446.9 625.6 469.3 625.6 469.3Z" fill="#355389"/>
<path d="M338.3 420.8L342.2 417.9C342.2 417.9 343.3 419.5 341.6 420.8C339.5 422.5 338.3 420.8 338.3 420.8Z" fill="white"/>
<path d="M228.7 119.5C228.6 119.3 228.4 119.3 228.2 119.2C226.1 119.2 224.1 119 222.1 118.7C221.8 118.7 221.4 118.6 221.1 118.4C220.6 118.2 220 118.2 219.4 118.3C219.1 118.4 218.8 118.4 218.5 118.4C217.5 118.4 214.5 117.4 213 117.1C212.7 117 212.4 116.8 212.3 116.4C210.8 110.5 207.6 97.3 207.2 92.9C206.7 87.3 202.8 62.3 202.8 62.3L192.5 65.2C192.5 65.2 196.7 83.7 197.9 92.6C198.8 99.5 205.7 114.2 207.9 118.4C209 121.6 211.3 121.6 211.9 121.7C212.2 121.7 212.5 121.9 212.7 122.1C213.1 122.6 213.5 122.9 214 123.2C214.3 123.4 214.6 123.7 214.9 124.1C215.4 124.7 215.7 125.4 216.1 126.1C216.4 126.6 216.6 126.7 217 126.6C217.4 126.5 217.7 126.1 217.6 125.7C217.6 125 217.4 124.3 217 123.7C216.7 123.2 216.7 122.6 217.1 122.2C217.3 121.9 217.6 121.6 217.9 121.3C218.2 121 218.6 120.9 219 120.9C219.8 121.1 220.5 121.2 221.3 121.3L221.9 121.4L222.2 121.5C222.2 121.5 223.3 121.7 223.7 121.7C224 121.7 224.5 121.7 224.9 121.7C225.3 121.7 225.7 121.6 226.1 121.5C226.4 121.5 226.8 121.3 227.1 121.1C227.2 121 227.3 120.9 227.3 120.7C227.3 120.5 227.1 120.5 227 120.4C226.7 120.4 225.5 120.2 225.5 120.1C225.9 120.1 227.1 120.1 227.5 120.1C228 120.1 228.5 119.9 228.8 119.5C228.6 119.9 228.7 119.7 228.7 119.5Z" fill="#F7A491"/>
<path d="M196.5 49.5C201.6 48.6 205.7 71.2 205.7 71.2C205.7 71.2 194.5 74.4 191.6 72.7C191.6 72.7 188.3 58.2 187.2 58.7L196.5 49.5Z" fill="#9BC1F9"/>
<path d="M74 456.9C74.3 455.9 69.7 455.2 69.4 454.2C69.1 453.2 75.3 453.1 75.5 452.3C75.9 450.7 68.8 452 68.9 451.2C69.1 450.5 76.3 448.8 75.6 447.6C74.8 446.3 68.2 450.1 68 449.3C67.8 448.5 74.5 446.4 74.3 444.5C74.2 443.5 63.4 449.5 62.1 449C60.9 448.5 63.5 443.7 62.4 443C61.4 442.3 58.5 452.6 57.8 452.9C57.1 453.2 42.4 461.6 37.2 462.9C36.6 461.1 35.2 458.8 34.6 457.1C31.7 459.2 29.5 460.2 26.5 462.1C28.7 467.6 31.8 473.6 33.3 474.3C38 476.4 55.9 461.5 59.5 459C63.1 456.5 65.1 457.3 67.6 456.5C70.2 455.7 73.7 457.8 74 456.9Z" fill="#F7A491"/>
<path d="M26 464.8C26 464.8 22 447 22.7 441.9C23.4 436.8 29.5 431.9 33.8 433.7C38.1 435.5 40 460.3 40 460.3L26 464.8Z" fill="#F7CC7F"/>
</svg>
