<svg width="100%" height="100%" viewBox="0 0 1739 905" fill="none" xmlns="http://www.w3.org/2000/svg">
  <path d="M1739 1.78136V904H0C17.9118 868.499 44.9912 830.098 85.4691 791.098C239.624 642.895 482.632 589.694 553.152 575.793C658.366 555.093 719.435 536.592 766.401 515.392C793.622 503.092 825.919 485.991 872.321 453.191C926.62 414.59 1004.33 351.489 1076.12 257.887C1090.79 235.986 1207.99 68.3827 1505.86 15.0816C1590.2 0.0813255 1669.19 -2.31872 1739 1.78136Z" fill="#262C33" />
  <path d="M1400.97 733.961C1405.68 734.74 1405.45 735.519 1406.02 735.519C1406.71 735.63 1415.21 731.513 1415.21 731.513C1415.21 731.513 1440.35 719.497 1441.73 718.719L1459.87 696.578L1473.87 702.808C1473.87 702.808 1453.44 726.396 1452.18 727.397C1450.91 728.398 1414.75 740.748 1411.65 741.861C1411.65 741.861 1408.55 744.642 1406.48 746.422C1404.42 748.203 1401.66 748.759 1401.09 749.204C1399.36 750.094 1397.41 750.762 1395.58 751.095C1392.82 751.652 1395.12 749.871 1395.12 749.871C1395.12 749.871 1399.94 747.869 1399.71 747.535C1399.48 747.201 1396.95 748.536 1393.97 749.204C1393.16 749.426 1392.36 749.538 1391.67 749.76C1389.84 750.094 1389.03 749.093 1390.87 748.425C1391.67 748.091 1392.59 747.758 1393.51 747.535C1394.43 747.313 1395.12 746.867 1395.92 746.645C1396.72 746.422 1397.64 746.089 1398.33 745.644C1398.22 745.532 1398.45 745.31 1397.64 745.421C1396.61 745.644 1394.66 746.534 1393.16 746.645C1392.25 746.756 1390.52 747.09 1390.52 747.09C1390.52 747.09 1387.42 747.424 1387.42 746.979C1387.42 746.089 1389.26 745.532 1390.52 745.532C1391.33 745.199 1392.25 744.976 1393.16 744.865C1393.16 744.865 1396.84 743.53 1396.61 742.973C1396.49 742.751 1394.31 743.085 1392.02 743.196C1389.61 743.418 1387.77 743.418 1387.65 742.862C1387.42 742.083 1389.38 741.861 1389.38 741.861C1389.38 741.861 1391.1 741.638 1391.67 741.527C1392.36 741.416 1394.31 740.748 1394.31 740.748C1394.31 740.748 1400.97 738.412 1400.74 737.855C1400.51 737.41 1399.36 736.409 1398.91 736.409C1398.45 736.409 1397.64 736.854 1397.18 736.854C1396.72 736.854 1395.69 736.743 1395.58 736.186C1395.46 735.63 1398.1 734.406 1398.1 734.406C1398.1 734.406 1399.59 733.739 1400.97 733.961Z" fill="#F8A492" />
  <path d="M1447.24 710.374C1447.24 710.374 1451.72 714.379 1453.67 715.714C1455.28 716.827 1462.85 720.387 1462.85 720.387C1462.85 720.387 1470.43 709.039 1473.76 703.476C1477.78 696.578 1480.53 686.453 1479.62 686.119C1476.97 685.34 1473.3 684.895 1469.86 686.342C1458.15 691.46 1447.24 710.374 1447.24 710.374Z" fill="#355389" />
  <path d="M1405.33 739.858C1403.27 740.192 1401.2 739.747 1400.4 737.967C1400.17 740.192 1403.5 741.193 1405.33 739.858Z" fill="#FE875E" />
  <path d="M841.857 660.752C842.201 654.187 841.168 647.734 838.068 641.615C835.427 636.386 828.998 633.382 823.143 633.382C804.544 633.382 802.133 657.303 790.308 666.537C786.634 669.319 782.616 671.655 779.171 674.659C766.543 685.897 772.168 706.702 783.879 716.493C791.915 723.28 804.544 727.174 814.532 721.834C819.699 719.052 823.602 714.379 826.472 709.373C830.491 702.141 833.016 693.907 835.887 686.119C838.986 677.997 841.512 669.541 841.857 660.752Z" fill="#13375B" />
  <path d="M844.842 692.572C838.986 675.438 831.294 675.772 831.294 675.772L837.494 712.154C841.053 711.153 845.76 709.15 849.319 708.149C848.286 702.697 846.334 696.8 844.842 692.572Z" fill="#F7CC7F" />
  <path d="M874.347 750.873L853.108 735.185C853.108 735.185 850.926 720.499 848.056 707.481C844.497 708.483 841.283 711.153 837.609 712.154L843.005 741.305L870.788 755.212L878.595 765.003L880.432 754.99L874.347 750.873Z" fill="#F48C7F" />
  <path d="M1068.03 726.284C1074.34 726.284 1080.66 727.842 1086.17 730.957C1086.86 731.291 1087.55 731.625 1088.35 731.959C1104.65 738.412 1122.56 726.395 1122.56 709.261V625.148H1035.77C1018.09 625.148 1005.69 607.792 1012.35 591.993C1012.69 591.325 1013.04 590.546 1013.38 589.879C1023.37 572.744 1017.17 550.937 999.488 541.258C993.403 537.92 986.63 536.362 979.626 536.696C960.453 537.586 945.069 552.718 944.61 571.298C944.38 577.64 945.987 583.871 949.087 589.434C949.432 590.101 949.776 590.88 950.121 591.659C956.779 607.792 944.151 625.26 926.24 625.26H840.249V816.962C840.249 862.134 878.136 898.85 924.748 898.85H1122.56V814.959C1122.56 797.714 1104.65 785.586 1088.23 792.151C1087.55 792.484 1086.74 792.818 1086.05 793.152C1068.26 802.72 1045.87 796.601 1036 779.467C1026.12 762.221 1032.44 740.526 1050.12 730.957C1055.51 727.842 1061.71 726.284 1068.03 726.284Z" fill="#FA3636" />
  <path d="M1256.2 679.666C1256.54 673.547 1258.38 667.539 1261.82 662.309C1262.28 661.642 1262.63 660.974 1262.97 660.195C1270.44 644.73 1258.84 626.817 1241.27 626.038L1154.48 622.144L1150.46 706.257C1149.66 723.392 1131.17 734.629 1115.21 727.286C1114.53 726.952 1113.72 726.618 1113.03 726.173C1095.81 715.715 1073.08 720.721 1062.29 737.299C1058.61 742.973 1056.66 749.649 1056.66 756.325C1056.66 774.905 1071.59 790.482 1090.76 791.928C1097.3 792.484 1103.85 791.149 1109.7 788.368C1110.39 788.034 1111.2 787.7 1112 787.478C1128.88 781.803 1146.33 794.821 1145.52 812.066L1141.51 895.401L1339.21 904.301C1385.82 906.415 1425.43 871.479 1427.61 826.308L1436.79 634.717L1350.34 630.823C1332.55 630.044 1319.34 646.844 1325.2 662.977C1325.43 663.756 1325.77 664.423 1326.12 665.202C1335.19 682.781 1327.84 704.255 1309.7 713.044C1291.56 721.834 1269.4 714.713 1260.33 697.134C1257.23 691.682 1255.97 685.674 1256.2 679.666Z" fill="#414346" />
  <path d="M1014.53 547.266C1014.87 553.385 1013.49 559.616 1010.62 565.068C1010.28 565.735 1009.94 566.514 1009.71 567.293C1003.85 583.426 1017.17 600.115 1034.73 599.225L1121.41 594.997L1117.05 510.995C1116.13 493.972 1133.35 480.954 1150 486.74C1150.81 486.963 1151.49 487.296 1152.3 487.63C1170.44 496.531 1192.6 489.41 1201.67 471.831C1204.76 465.712 1206.14 459.036 1205.45 452.249C1203.62 433.78 1187.2 419.65 1168.03 420.095C1161.48 420.206 1155.17 422.098 1149.54 425.324C1148.85 425.769 1148.16 426.103 1147.36 426.437C1131.17 433.669 1112.46 422.32 1111.54 405.075L1107.18 321.74L909.479 331.309C862.866 333.534 827.046 372.03 829.343 417.202L839.216 608.682L925.666 604.454C943.462 603.564 954.943 585.651 947.48 570.074C947.136 569.407 946.791 568.628 946.332 567.96C935.54 551.271 940.706 529.242 957.928 518.783C975.149 508.325 997.881 513.331 1008.67 530.02C1012.23 535.25 1014.18 541.147 1014.53 547.266Z" fill="#414346" />
  <path d="M1192.02 500.87C1185.71 500.87 1179.39 499.312 1173.88 496.197C1173.19 495.863 1172.5 495.53 1171.7 495.196C1155.4 488.743 1137.49 500.759 1137.49 517.893V602.006H1224.28C1241.96 602.006 1254.36 619.363 1247.59 635.162C1247.24 635.829 1246.9 636.608 1246.55 637.276C1236.57 654.41 1242.77 676.217 1260.45 685.897C1266.53 689.234 1273.42 690.792 1280.31 690.458C1299.48 689.568 1314.87 674.437 1315.33 655.856C1315.55 649.514 1313.95 643.284 1310.85 637.721C1310.5 637.053 1310.16 636.274 1309.81 635.496C1303.16 619.363 1315.78 601.895 1333.69 601.895H1419.8V410.304C1419.8 365.132 1381.91 328.416 1335.3 328.416H1137.49V412.307C1137.49 429.552 1155.4 441.679 1171.81 435.115C1172.62 434.781 1173.31 434.447 1174 434.114C1191.79 424.545 1214.18 430.665 1224.05 447.799C1233.93 464.933 1227.61 486.74 1209.93 496.308C1204.54 499.312 1198.34 500.87 1192.02 500.87Z" fill="#FA3636" />
  <path d="M783.649 872.147C783.649 872.147 782.386 880.937 780.09 883.829C779.286 884.831 777.909 886.055 776.99 887.724C775.612 890.394 776.301 894.399 777.449 896.624C778.023 897.737 777.449 897.737 778.597 898.182C782.271 899.183 786.06 897.515 787.552 894.065C788.586 891.729 789.275 889.17 789.275 886.5C789.619 878.489 792.26 874.372 792.26 874.372L783.649 872.147Z" fill="#F7A491" />
  <path d="M823.143 876.264C823.143 876.264 823.946 886.166 823.258 889.504C822.913 891.284 820.961 894.844 821.88 896.402C822.798 898.071 823.832 898.405 823.832 898.405L847.138 898.738C848.401 898.738 847.597 897.959 846.564 897.181C844.842 895.957 843.579 895.178 838.183 892.619C837.838 892.396 836.575 891.618 836.116 891.395C834.853 890.616 833.705 889.615 832.787 888.502C831.065 886.722 830.95 877.933 830.95 877.933L823.143 876.264Z" fill="#F7A491" />
  <path d="M841.397 743.864C841.397 743.864 844.382 759.996 842.431 770.677C840.479 781.247 831.294 879.602 831.294 879.602L821.076 880.158C821.076 880.158 818.895 839.103 819.354 833.428C819.699 827.754 822.799 818.186 822.799 818.186L821.765 785.03L834.739 741.527L841.397 743.864Z" fill="#355389" />
  <path d="M811.088 740.414C811.088 740.414 803.051 752.208 801.1 761.999C799.148 771.79 802.477 801.83 798.804 814.737C796.852 821.635 789.16 832.427 788.012 841.328C786.864 850.34 782.271 873.816 782.271 873.816L792.489 875.819L816.369 817.184L835.083 764.113L839.905 736.854L811.088 740.414Z" fill="#466EB6" />
  <path d="M817.747 673.102C817.747 673.102 807.07 672.434 802.822 676.885C798.574 681.335 812.236 716.827 813.04 722.613C813.843 728.398 809.136 743.53 809.136 743.53C809.136 743.53 834.279 748.425 841.512 743.864C841.512 743.864 842.316 702.808 841.512 698.692C840.708 694.575 834.279 677.997 832.787 676.439C831.065 674.771 817.747 673.102 817.747 673.102Z" fill="#F7CC7F" />
  <path d="M821.306 659.194C821.306 659.194 821.306 659.528 821.076 660.084C820.617 662.643 818.78 670.876 817.517 673.213C816.025 675.994 822.684 684.784 828.998 683.671C830.95 683.338 827.391 675.549 827.621 674.771C827.965 673.213 828.424 671.099 828.883 668.874C829.113 667.65 829.457 666.315 829.572 665.202L830.835 659.083L821.306 659.194Z" fill="#F7A491" />
  <path d="M821.077 660.084C821.191 659.528 821.306 659.194 821.306 659.194L830.835 658.972L829.572 665.091C829.343 666.315 828.998 667.539 828.883 668.763C827.161 668.429 825.554 667.65 824.291 666.537C822.684 665.202 821.536 663.422 820.847 661.531C820.962 660.974 821.077 660.418 821.077 660.084Z" fill="#F47458" />
  <path d="M827.735 638.055C827.735 638.055 823.258 637.498 820.387 641.059C817.517 644.619 814.532 655.634 821.535 661.642C828.539 667.65 835.542 660.863 836.575 653.742C837.609 646.622 837.953 637.832 827.735 638.055Z" fill="#F7A491" />
  <path d="M838.642 653.631C837.838 655.189 836.346 656.079 835.542 655.634C834.624 655.077 834.624 653.409 835.427 651.851C836.231 650.293 837.723 649.403 838.527 649.848C839.331 650.293 839.446 651.962 838.642 653.631Z" fill="#F7A491" />
  <path d="M828.194 636.942C828.194 636.942 822.11 647.4 817.862 647.957C813.499 648.513 813.04 653.965 813.04 653.965C813.04 653.965 814.647 641.17 818.895 638.722C823.028 636.163 828.194 636.942 828.194 636.942Z" fill="#13375B" />
  <path d="M788.356 892.285C782.731 893.287 779.057 890.06 777.105 887.724C775.727 890.394 775.038 894.51 776.072 896.624C776.99 898.627 779.746 898.516 781.812 898.627C784.108 898.738 785.83 897.514 786.864 895.623C787.438 894.622 788.012 893.509 788.356 892.285Z" fill="#F47458" />
  <path d="M836.001 891.618C829.802 893.175 825.324 892.174 822.798 891.061C822.11 892.842 821.306 895.178 821.765 896.402C822.339 897.96 823.143 898.405 823.832 898.405C829.457 898.516 844.497 898.738 848.745 898.738C849.09 898.738 849.434 898.405 849.434 898.071C849.434 897.848 849.434 897.737 849.204 897.626C848.171 896.513 836.575 891.84 836.001 891.618Z" fill="#F47458" />
  <path d="M819.01 650.516C819.354 652.407 818.665 654.076 817.402 654.299C816.14 654.521 814.877 653.297 814.532 651.406C814.188 649.514 814.877 647.845 816.14 647.623C817.402 647.289 818.665 648.624 819.01 650.516Z" fill="#F7A491" />
  <path d="M826.013 656.858L831.409 657.08C831.409 657.08 831.179 659.083 828.769 659.083C825.898 659.083 826.013 656.858 826.013 656.858Z" fill="white" />
  <path d="M1290.41 236.07C1291.1 236.07 1292.94 236.737 1295.69 241.633C1299.14 247.975 1304.19 267.223 1304.19 267.223L1289.03 272.674L1287.08 268.669L1283.87 237.85C1283.98 237.85 1290.3 236.07 1290.41 236.07Z" fill="#DD513A" />
  <path d="M1270.43 233.288C1274.8 233.288 1285.47 234.512 1290.41 236.07C1290.41 236.07 1294.09 266.444 1287.08 289.586C1285.47 294.815 1288.35 311.059 1288.35 311.059L1243.46 310.503C1243.46 310.503 1248.74 271.117 1246.78 264.775C1244.83 258.433 1244.72 236.292 1244.72 236.292C1244.72 236.292 1245.06 236.292 1254.82 234.623C1260.1 233.733 1265.27 233.288 1270.43 233.288Z" fill="#F47458" />
  <path d="M1265.27 367.58C1265.27 367.58 1266.3 378.706 1268.02 381.71C1269.86 384.825 1267.91 389.943 1267.79 390.722C1267.68 391.501 1264.01 392.502 1258.04 391.835C1252.07 391.167 1252.18 389.832 1252.64 387.718C1253.1 385.604 1256.31 382.823 1256.43 380.709C1256.54 378.595 1254.59 371.251 1254.59 371.251L1265.27 367.58Z" fill="#F7A491" />
  <path d="M1283.41 301.936C1283.41 301.936 1314.41 300.267 1321.3 304.273C1328.18 308.278 1316.36 328.194 1316.36 328.194C1316.36 328.194 1294.77 327.192 1252.64 329.64C1242.65 330.196 1241.73 304.384 1243.69 302.27C1245.52 300.156 1283.41 301.936 1283.41 301.936Z" fill="#E0973F" />
  <path d="M1257.35 392.725C1251.26 392.057 1251.95 389.164 1252.53 386.939C1252.87 385.604 1254.59 383.935 1255.63 382.377C1256.2 382.823 1257 383.601 1259.76 384.269C1262.51 385.048 1266.3 383.49 1268.71 382.489C1269.4 385.048 1269.63 387.607 1269.52 390.166C1269.29 390.945 1263.43 393.392 1257.35 392.725Z" fill="#DD513A" />
  <path d="M1260.68 323.409C1261.94 332.533 1268.02 377.705 1268.02 377.705L1253.79 379.373C1253.79 379.373 1236.34 320.405 1237.26 311.393C1238.17 302.381 1244.72 301.602 1244.72 301.602C1244.72 301.602 1257.35 299.377 1260.68 323.409Z" fill="#F7CC7F" />
  <path d="M1244.37 239.63C1248.51 238.072 1250.69 274.677 1251.15 289.809C1258.61 290.476 1271.47 289.809 1274.8 289.586C1276.29 289.475 1279.85 288.251 1281.34 288.028C1282.6 287.806 1283.75 287.806 1285.02 287.806C1285.25 287.806 1293.05 290.921 1293.74 291.589C1294.54 292.479 1296.73 294.482 1296.38 295.483C1296.04 296.373 1292.13 292.924 1292.13 292.924L1290.18 291.923C1292.59 294.148 1297.07 297.152 1296.5 298.153C1295.81 299.266 1291.79 296.15 1288.8 294.148C1291.33 296.373 1294.43 300.267 1293.63 300.823C1292.94 301.38 1289.49 296.818 1285.7 295.594C1284.33 295.149 1282.95 296.484 1281.8 296.596C1281 296.707 1279.73 296.929 1278.93 296.818L1274.91 295.705C1273.54 295.817 1273.54 296.595 1272.04 296.929C1270.44 297.263 1267.68 297.597 1265.61 298.153C1253.67 301.046 1249.65 302.27 1245.98 302.27C1235.07 302.159 1234.39 243.302 1244.37 239.63Z" fill="#F7A491" />
  <path d="M1236.45 274.01C1235.65 258.544 1235.76 239.519 1244.72 236.292C1248.28 234.957 1254.48 242.745 1253.33 274.343C1248.51 274.677 1241.5 275.011 1236.45 274.01Z" fill="#DD513A" />
  <path d="M1306.83 377.037C1306.83 377.037 1305.57 380.931 1307.86 383.49C1310.16 386.049 1319.34 388.497 1320.49 389.943C1321.75 391.278 1321.64 392.502 1321.64 392.502L1295.69 391.835L1296.04 384.269L1297.3 378.817L1306.83 377.037Z" fill="#F7A491" />
  <path d="M1309.35 384.714C1309.35 384.714 1302.7 387.273 1299.48 385.715C1296.27 384.158 1296.38 383.713 1295.46 384.38C1294.54 384.937 1294.2 392.057 1294.2 392.057L1323.36 392.947C1325.43 392.947 1326.46 391.39 1324.74 390.277C1323.71 389.609 1322.67 388.942 1321.52 388.386C1319.23 387.05 1309.35 384.714 1309.35 384.714Z" fill="#DD513A" />
  <path d="M1305.8 309.057C1307.75 304.94 1312.34 299.6 1320.38 302.826C1328.07 305.83 1330.02 313.396 1327.72 321.073C1325.31 328.75 1309.47 373.922 1308.9 380.152L1296.15 380.264C1296.15 380.264 1298.45 344.549 1299.02 335.871C1299.48 327.415 1302.35 316.066 1305.8 309.057Z" fill="#F7CC7F" />
  <path d="M1326.35 267.445H1283.98C1282.83 267.445 1281.92 268.113 1281.46 269.114L1268.37 300.045H1245.06C1244.37 300.045 1243.91 300.601 1243.91 301.157C1243.91 301.825 1244.49 302.27 1245.06 302.27H1311.54C1313.37 302.27 1314.98 301.268 1315.78 299.6L1328.87 271.117C1329.56 269.782 1328.87 268.224 1327.49 267.556C1327.15 267.445 1326.81 267.445 1326.35 267.445Z" fill="black" />
  <path d="M1303.61 285.469C1303.27 286.805 1302.01 287.806 1300.86 287.583C1299.6 287.361 1298.79 286.026 1299.14 284.579C1299.37 283.244 1300.74 282.243 1301.89 282.465C1303.16 282.688 1303.84 284.023 1303.61 285.469Z" fill="white" />
  <path d="M1280.54 196.127C1279.28 195.682 1278.01 195.237 1276.75 194.681C1275.37 194.013 1273.65 193.346 1272.5 193.123C1270.09 192.789 1266.07 193.012 1263.78 195.348C1261.02 198.241 1255.97 195.905 1257 211.259C1258.15 228.615 1268.14 226.724 1268.37 226.39C1268.6 226.056 1277.21 215.264 1277.21 215.264C1277.21 215.264 1280.19 221.717 1280.19 221.495C1280.31 221.272 1295.81 201.134 1280.54 196.127Z" fill="#0E2E35" />
  <path d="M1272.96 227.725L1273.88 233.956C1273.88 233.956 1275.83 242.857 1273.31 244.637C1270.78 246.417 1262.74 233.622 1262.74 233.622L1263.66 217.823L1272.96 227.725Z" fill="#F7A491" />
  <path d="M1263.32 223.052C1265.38 228.393 1270.32 231.731 1273.76 232.954L1273.08 227.725L1263.66 217.934L1263.32 223.052Z" fill="#F47458" />
  <path d="M1272.39 200.8C1277.09 200.132 1281.46 203.248 1282.15 207.698C1282.26 208.143 1282.26 208.7 1282.26 209.145C1282.26 211.815 1281.92 214.485 1281.57 217.155C1280.42 224.387 1275.37 230.618 1272.04 230.062C1268.71 229.505 1260.33 223.275 1261.82 213.039C1262.63 206.808 1266.88 201.69 1272.39 200.8Z" fill="#F7A491" />
  <path d="M1264.01 214.374C1263.66 215.931 1262.4 217.044 1261.02 216.822C1259.64 216.599 1258.84 215.153 1259.07 213.595C1259.3 212.037 1260.68 210.925 1262.05 211.147C1263.43 211.259 1264.35 212.816 1264.01 214.374Z" fill="#F7A491" />
  <path d="M1262.17 211.036C1262.17 211.036 1266.19 212.037 1267.68 209.478C1269.17 206.919 1274.57 201.579 1281.34 203.804C1288.12 206.029 1275.37 198.352 1274.8 198.352H1267.68C1267.68 198.352 1262.63 202.358 1262.51 202.803C1262.28 203.248 1260.91 208.032 1260.91 208.032L1262.17 211.036Z" fill="#0E2E35" />
  <path d="M1269.63 221.606L1276.98 222.941C1276.98 222.941 1276.29 225.611 1272.96 225.166C1269.06 224.499 1269.63 221.606 1269.63 221.606Z" fill="white" />
  <path d="M1145.18 717.94C1145.41 718.607 1145.64 719.275 1145.98 719.831C1148.28 723.836 1153.68 729.733 1153.68 729.733L1157.81 720.721C1157.81 720.721 1157.12 717.828 1155.97 713.823C1151.95 714.713 1148.05 715.269 1145.18 717.94Z" fill="#F8A492" />
  <path d="M1168.83 710.04C1168.83 710.04 1145.75 719.609 1144.95 719.497C1144.49 719.386 1135.54 704.811 1135.42 691.126C1135.42 684.784 1142.19 677.107 1149.77 678.665C1153.56 679.443 1153.56 680.445 1159.19 688.456C1164.81 696.355 1168.83 710.04 1168.83 710.04Z" fill="#13375B" />
  <path d="M1188.58 882.828L1188 891.618C1187.77 892.73 1186.97 895.512 1186.97 896.513C1186.97 900.296 1205.68 893.287 1201.44 891.618C1201.09 891.395 1199.02 890.283 1198.91 889.059C1198.68 887.056 1198.22 883.051 1198.22 883.051L1188.58 882.828Z" fill="#F7A491" />
  <path d="M1201.44 891.618C1201.44 891.618 1197.07 892.842 1194.78 893.064C1192.48 893.398 1189.61 890.839 1188 891.506C1186.28 892.174 1186.28 898.738 1186.28 898.738C1186.28 898.738 1209.82 900.63 1216.36 898.627C1219.12 897.96 1210.39 894.288 1201.44 891.618Z" fill="#DD513A" />
  <path d="M1150.35 882.828L1149.77 891.618C1149.54 892.73 1148.74 895.512 1148.74 896.513C1148.74 900.296 1167.45 893.287 1163.2 891.618C1162.86 891.395 1160.22 889.392 1160.1 888.169C1159.88 886.166 1159.99 882.939 1159.99 882.939L1150.35 882.828Z" fill="#F7A491" />
  <path d="M1163.32 891.618C1163.32 891.618 1158.96 892.842 1156.66 893.064C1154.36 893.398 1151.49 890.839 1149.89 891.506C1148.16 892.174 1148.05 898.738 1148.05 898.738C1148.05 898.738 1171.7 900.964 1178.36 898.627C1180.88 897.848 1172.27 894.288 1163.32 891.618Z" fill="#DD513A" />
  <path d="M1156.09 722.724L1172.5 700.361C1172.62 700.138 1172.73 699.804 1172.96 699.137C1173.77 696.911 1175.49 692.35 1176.98 687.677C1177.44 686.119 1178.47 683.338 1179.39 680.556C1180.43 677.552 1181.8 673.769 1181.8 673.213C1181.8 673.102 1181.69 672.879 1181.57 672.657C1181 671.099 1180.2 667.539 1179.85 665.981C1179.62 664.98 1179.51 662.532 1180.77 662.532C1182.72 662.532 1181.8 664.98 1182.72 666.426C1183.3 664.757 1183.75 663.088 1184.1 661.419L1184.44 656.746C1184.44 656.413 1184.1 653.742 1185.48 653.742H1185.59C1186.85 653.854 1186.85 656.635 1187.31 661.308C1187.54 660.752 1187.66 660.084 1187.77 659.528C1187.89 658.638 1188 657.859 1188.23 657.08C1188 655.745 1188.12 653.742 1189.61 653.854C1190.3 653.965 1190.3 656.858 1190.3 656.858C1190.3 657.191 1190.3 660.307 1190.3 660.863C1190.41 659.862 1190.99 655.522 1192.14 655.522C1193.05 655.522 1193.17 656.746 1193.17 657.636C1193.17 658.193 1192.6 662.866 1192.48 663.533C1192.94 662.866 1193.4 658.638 1193.86 658.638C1195.69 658.638 1195.01 664.535 1194.32 666.092C1194.2 666.426 1194.09 666.649 1194.09 666.982C1193.86 668.54 1193.28 669.986 1192.48 671.433C1191.33 673.324 1189.72 676.328 1189.5 676.773C1189.27 677.775 1188.81 681.112 1188.12 685.34C1187.77 687.232 1187.54 689.235 1187.2 691.237C1187.08 691.682 1186.85 693.129 1185.48 698.469C1183.75 705.812 1183.53 706.146 1183.41 706.257C1182.61 707.593 1164.93 730.846 1164.12 731.847L1163.66 732.404L1156.09 722.724Z" fill="#F7A491" />
  <path d="M1186.63 670.654C1186.63 670.654 1185.25 667.316 1182.95 667.316C1183.87 667.094 1184.67 667.205 1185.36 667.761C1186.63 668.651 1186.63 670.654 1186.63 670.654Z" fill="#F47458" />
  <path d="M1152.18 664.312L1150.12 677.33C1150.12 677.33 1158.15 683.56 1162.86 682.225C1166.76 681.112 1164.12 676.106 1164.12 676.106C1164.12 676.106 1162.06 669.208 1162.63 665.536C1163.2 661.976 1152.18 664.312 1152.18 664.312Z" fill="#F7A491" />
  <path d="M1153.68 668.206C1156.55 669.43 1159.65 670.32 1162.86 670.765C1162.52 668.985 1162.4 667.094 1162.63 665.647C1162.97 663.978 1160.68 663.645 1158.27 663.645C1155.05 663.867 1152.18 664.423 1152.18 664.423L1151.72 666.982C1152.3 667.427 1152.87 667.872 1153.68 668.206Z" fill="#FE875E" />
  <path d="M1141.96 649.292C1141.62 649.292 1145.18 663.756 1150.58 666.315C1155.97 668.762 1164.12 667.539 1165.73 663.644C1167.45 659.305 1161.25 644.508 1153.56 642.616C1145.87 640.725 1141.96 649.292 1141.96 649.292Z" fill="#F7A491" />
  <path d="M1148.28 636.052C1145.18 637.832 1142.77 640.391 1141.28 643.618C1139.21 644.619 1136.8 646.622 1135.54 652.073C1134.04 658.86 1139.21 663.978 1144.72 665.536C1150.23 667.094 1151.03 670.654 1151.03 670.654L1151.61 666.871C1151.61 666.871 1150.35 663.533 1148.51 661.864C1146.67 660.195 1149.43 657.859 1149.66 655.856C1149.89 654.299 1148.74 651.406 1148.97 648.958C1148.97 648.958 1152.07 644.508 1155.05 643.395C1160.22 641.392 1153.9 632.937 1148.28 636.052Z" fill="#13375B" />
  <path d="M1150.58 658.304C1151.26 659.973 1151.03 661.642 1149.89 661.976C1148.85 662.309 1147.36 661.308 1146.67 659.639C1145.98 657.97 1146.21 656.301 1147.36 655.968C1148.39 655.522 1149.89 656.635 1150.58 658.304Z" fill="#F7A491" />
  <path d="M1170.9 723.169L1202.58 718.162C1202.58 718.162 1198.91 709.373 1197.76 709.373C1196.61 709.373 1173.77 718.941 1173.77 718.941L1171.93 722.501L1170.9 723.169Z" fill="#F8A492" />
  <path d="M1154.59 744.197C1154.59 744.197 1151.49 758.995 1152.76 770.232C1154.02 781.47 1154.13 821.412 1154.13 821.412L1149.2 885.276L1160.91 885.498C1160.91 885.498 1174.8 821.635 1174.46 823.304C1174.11 824.972 1179.16 778.354 1179.16 778.354L1162.63 742.751L1154.59 744.197Z" fill="#184655" />
  <path d="M1157.69 743.53C1157.69 743.53 1155.63 756.881 1158.27 762.778C1160.91 768.675 1180.43 826.085 1180.66 830.758C1180.88 835.431 1187.43 887.278 1187.43 887.278L1200.98 886.945L1203.96 829.423L1197.76 757.103L1191.79 738.857L1157.69 743.53Z" fill="#13375B" />
  <path d="M1150 677.33C1150 677.33 1153.33 679.444 1156.43 679.221C1159.53 678.998 1164.01 676.217 1164.01 676.217L1163.43 674.214C1163.43 674.214 1155.4 673.102 1155.17 673.213C1154.94 673.213 1150 677.33 1150 677.33Z" fill="#F7A491" />
  <path d="M1185.71 708.816C1185.71 708.816 1197.76 719.72 1203.16 717.94C1208.55 716.048 1210.85 709.706 1197.65 700.249C1185.71 691.905 1185.71 708.816 1185.71 708.816Z" fill="#F8A492" />
  <path d="M1193.86 722.39C1192.14 712.933 1179.16 683.783 1178.13 678.331C1177.56 675.661 1170.67 675.661 1164.01 675.994C1157 676.328 1150 677.218 1150 677.218C1150 677.218 1143.8 678.22 1141.05 680.667C1138.29 683.115 1137.6 690.013 1141.51 703.031C1144.61 713.267 1148.51 718.941 1150.35 726.507C1150.69 729.066 1151.03 731.514 1151.49 734.406C1152.18 745.644 1151.49 760.33 1151.49 760.33C1151.49 760.33 1185.25 767.117 1197.99 756.77C1197.88 756.881 1195.58 732.07 1193.86 722.39Z" fill="#355389" />
  <path d="M1202.47 702.252C1202.47 702.252 1189.27 712.822 1188.46 712.822C1187.89 712.822 1169.52 699.693 1165.27 688.901C1162.97 682.893 1167.91 676.217 1173.42 676.217C1177.33 676.217 1179.05 677.218 1186.85 683.56C1194.66 689.902 1202.47 702.252 1202.47 702.252Z" fill="#466EB6" />
  <path d="M969.294 228.838C971.475 223.831 973.656 218.713 979.282 216.154C983.874 214.04 988.582 214.819 992.715 217.823C1004.2 226.167 994.207 235.402 1007.3 251.312C1011.31 256.208 1016.25 260.213 1018.66 265.999C1022.11 274.121 1017.97 278.015 1011.54 281.798C980.315 300.267 964.013 262.327 964.587 253.538C965.046 247.085 967.801 232.064 969.294 228.838Z" fill="#13375B" />
  <path d="M936.918 327.526C938.181 327.303 941.395 325.078 942.543 324.856C943.462 324.633 945.299 324.411 946.102 324.299C947.136 320.739 952.072 301.38 952.646 295.594C953.22 289.364 957.698 262.772 957.698 262.772L969.408 264.775C969.408 264.775 964.586 285.358 963.209 295.26C962.061 303.827 952.417 323.076 951.154 325.078C951.154 325.078 951.154 325.19 951.154 325.301C950.924 328.305 949.432 327.303 949.432 327.303L947.021 327.86C947.021 327.86 938.41 328.639 937.836 328.861C937.262 329.084 935.655 327.637 936.918 327.526Z" fill="#F7A491" />
  <path d="M967.916 247.196C959.65 249.866 955.057 271.562 955.057 271.562C955.057 271.562 967.916 275.122 971.245 273.231C971.245 273.231 975.034 257.098 976.297 257.654L967.916 247.196Z" fill="#6A97CE" />
  <path d="M904.197 365.021C902.475 369.36 901.212 373.81 900.294 378.372C900.294 378.706 900.753 380.486 900.753 380.931C895.702 387.607 888.354 389.053 882.154 389.498C885.254 386.494 889.961 383.601 890.191 382.711C891.683 376.926 892.831 371.029 893.405 365.132C897.309 366.801 899.95 365.355 904.197 365.021Z" fill="#F7A491" />
  <path d="M975.952 292.924L987.089 323.298C987.089 323.298 969.179 326.525 962.52 327.749C955.861 328.972 918.548 330.53 917.515 331.198C916.826 331.643 909.134 355.897 905.69 369.137C901.786 370.028 895.127 368.915 891.568 367.802C893.52 348.777 900.409 318.514 902.705 315.176C906.149 309.836 975.952 292.924 975.952 292.924Z" fill="#256653" />
  <path d="M932.44 378.261C931.636 382.823 931.177 387.496 931.177 392.168C931.177 392.502 932.096 394.171 932.096 394.505C928.422 401.959 921.533 404.741 915.563 406.299C918.089 402.738 922.107 399.067 922.222 398.177C922.567 392.28 922.567 386.272 921.993 380.264C926.011 381.265 928.307 379.485 932.44 378.261Z" fill="#F7A491" />
  <path d="M988.926 294.482L993.288 301.602C999.144 311.393 995.814 323.966 985.711 329.64C984.793 330.196 983.759 330.641 982.726 330.975L982.496 331.086C976.182 333.423 939.788 341.767 938.984 342.657C938.41 343.214 935.54 368.47 934.622 382.155C930.948 383.713 924.174 383.935 920.5 383.379C918.663 364.242 919.696 333.312 921.189 329.64C923.715 323.743 988.926 294.482 988.926 294.482Z" fill="#327F6B" />
  <path d="M930.603 392.391C931.522 391.39 935.081 397.064 935.999 398.288C937.032 399.623 936.688 400.624 936.573 400.958C936.229 401.514 917.515 412.195 912.923 412.974C912.463 412.974 912.004 412.863 911.545 412.64C909.823 411.083 917.974 399.845 921.648 398.288C924.059 397.175 926.24 397.064 930.603 392.391Z" fill="#13375B" />
  <path d="M899.72 378.595C900.868 377.705 903.279 383.935 903.853 385.382C904.542 386.939 904.082 387.941 903.968 388.052C903.508 388.608 883.073 395.618 878.365 395.618C877.906 395.618 877.447 395.395 877.103 395.061C875.61 393.17 885.943 383.601 889.846 382.823C892.372 382.155 894.439 382.377 899.72 378.595Z" fill="#13375B" />
  <path d="M975.723 247.196C975.378 247.196 975.149 247.085 974.919 246.973C973.427 246.751 970.097 246.306 967.457 247.418C964.357 248.753 959.42 260.77 959.65 273.231C959.764 275.122 959.879 276.791 959.994 278.015C960.798 287.361 963.553 304.94 963.668 305.051C967.457 307.388 990.189 298.264 991.796 296.262C993.403 294.259 994.322 269.893 995.01 268.669L996.503 247.418C993.977 246.751 979.741 247.196 975.723 247.196Z" fill="#9BC1F9" />
  <path d="M984.907 239.408C984.907 239.408 983.415 246.751 983.759 249.643C984.104 252.536 982.611 261.882 976.297 261.882C969.982 261.882 975.034 249.977 975.723 247.196C976.297 244.303 976.412 235.513 976.412 235.513L984.907 239.408Z" fill="#F7A491" />
  <path d="M976.297 239.964C976.412 237.516 976.412 235.625 976.412 235.625L984.908 239.519C984.908 239.519 984.563 241.076 984.334 242.968C980.66 243.524 978.019 242.189 976.297 239.964Z" fill="#F47458" />
  <path d="M988.122 219.047C990.189 220.382 991.796 222.273 992.6 224.61C993.863 228.393 992.37 238.295 983.989 240.631C975.493 242.968 971.819 235.18 973.656 229.172C975.264 223.052 979.052 215.375 988.122 219.047Z" fill="#F7A491" />
  <path d="M972.508 226.835C972.738 228.504 973.542 229.728 974.575 229.617C975.608 229.505 976.182 228.059 976.067 226.501C975.838 224.832 975.034 223.609 974.001 223.72C972.968 223.831 972.279 225.166 972.508 226.835Z" fill="#F7A491" />
  <path d="M987.089 218.602C987.089 218.602 988.581 229.617 992.255 231.619C995.929 233.622 994.322 238.517 994.322 238.517C994.322 238.517 997.651 227.169 994.781 223.609C991.911 219.826 987.089 218.602 987.089 218.602Z" fill="#13375B" />
  <path d="M990.074 233.066C989.041 234.512 989.041 236.181 990.074 236.849C991.107 237.516 992.715 236.849 993.633 235.402C994.552 233.956 994.666 232.287 993.633 231.619C992.715 231.063 991.107 231.619 990.074 233.066Z" fill="#F7A491" />
  <path d="M977.79 233.733L983.76 235.18C983.76 235.18 983.071 237.405 980.43 236.849C977.215 236.07 977.79 233.733 977.79 233.733Z" fill="white" />
  <path d="M1007.41 326.525L1033.13 325.301C1033.13 325.301 1022.56 332.644 1022.33 332.644C1022.11 332.644 1013.95 329.529 1013.61 329.529C1013.15 329.529 1007.41 326.525 1007.41 326.525Z" fill="#50BFA5" />
  <path d="M1521.64 883.162C1521.64 883.162 1522.21 891.729 1522.21 891.84C1522.44 892.953 1523.13 895.623 1523.13 896.624C1523.13 900.407 1506.02 893.398 1509.81 891.729C1510.15 891.506 1511.99 890.394 1512.11 889.17C1512.34 887.167 1512.68 883.273 1512.68 883.273L1521.64 883.162Z" fill="#F7A491" />
  <path d="M1509.58 891.84C1511.53 892.397 1513.6 892.842 1515.66 893.287C1517.73 893.62 1520.49 891.173 1521.86 891.84C1523.47 892.508 1523.47 898.961 1523.47 898.961C1523.47 898.961 1501.89 900.852 1495.8 898.85C1493.39 898.182 1501.31 894.511 1509.58 891.84Z" fill="#F7CC7F" />
  <path d="M1550.22 882.717C1550.22 882.717 1550.8 891.284 1550.8 891.395C1551.03 892.508 1551.71 895.178 1551.71 896.179C1551.71 899.851 1534.61 892.953 1538.4 891.284C1538.74 891.061 1541.15 889.17 1541.15 887.835C1541.38 885.832 1541.27 882.717 1541.27 882.717H1550.22Z" fill="#F7A491" />
  <path d="M1538.4 891.284C1540.35 891.84 1542.42 892.285 1544.48 892.73C1546.55 893.064 1549.3 890.616 1550.68 891.284C1552.29 891.952 1552.4 898.405 1552.4 898.405C1552.4 898.405 1531.05 899.295 1524.62 898.293C1522.09 897.96 1530.13 893.954 1538.4 891.284Z" fill="#F7CC7F" />
  <path d="M1545.06 745.532C1545.06 745.532 1547.93 760.108 1546.78 771.122C1545.63 782.137 1545.52 821.412 1545.52 821.412L1550.91 884.163L1539.2 884.386C1539.2 884.386 1526.46 821.635 1526.69 823.304C1526.92 824.972 1522.44 779.133 1522.44 779.133L1537.59 744.197L1545.06 745.532Z" fill="#355389" />
  <path d="M1541.04 736.186C1541.04 736.186 1554.24 749.649 1549.3 764.335C1547.35 770.232 1528.98 826.53 1528.75 831.092C1528.52 835.654 1522.55 886.611 1522.55 886.611L1510.04 886.277L1507.28 829.757L1510.84 753.543L1518.42 740.748L1541.04 736.186Z" fill="#466EB6" />
  <path d="M1461.13 692.461C1465.49 687.788 1474.79 681.112 1474.79 681.112C1474.79 681.112 1480.42 676.44 1482.6 675.772C1485.93 674.659 1491.67 671.655 1500.05 683.894C1506.02 692.684 1543.45 737.855 1549.65 739.413L1509.47 758.105C1508.32 749.204 1488.46 732.404 1485.59 729.288C1479.27 722.168 1457.11 696.911 1461.13 692.461Z" fill="#F47458" />
  <path d="M1463.08 673.547L1475.6 680.667C1475.6 680.667 1475.94 691.015 1471.81 693.685C1468.36 695.91 1465.72 690.458 1465.72 690.458C1465.72 690.458 1461.02 684.228 1457.57 682.225C1454.01 680.334 1463.08 673.547 1463.08 673.547Z" fill="#F7A491" />
  <path d="M1465.15 678.108C1464.58 680.89 1463.43 683.56 1461.93 686.008C1460.56 684.562 1458.95 683.115 1457.57 682.336C1455.96 681.446 1457 679.444 1458.61 677.663C1460.9 675.438 1463.08 673.547 1463.08 673.547L1465.49 674.882C1465.61 675.772 1465.26 677.33 1465.15 678.108Z" fill="#F47458" />
  <path d="M1456.42 655.745C1456.65 655.523 1466.87 667.872 1465.61 673.769C1464.35 679.555 1458.15 684.895 1453.78 683.449C1448.96 681.78 1440.12 667.205 1443.34 660.084C1446.55 652.964 1456.42 655.745 1456.42 655.745Z" fill="#F7A491" />
  <path d="M1445.17 651.851C1449.65 649.403 1457 648.736 1462.39 651.517C1469.17 654.966 1470.66 663.533 1468.59 668.763C1466.53 673.992 1468.94 676.996 1468.94 676.996L1465.38 674.993C1465.38 674.993 1463.31 671.878 1462.97 669.319C1462.62 666.76 1458.95 667.316 1457 666.092C1455.62 665.202 1453.78 662.421 1451.49 660.863C1451.49 660.863 1445.75 660.195 1442.88 661.753C1438.05 664.312 1438.74 655.3 1445.17 651.851Z" fill="#13375B" />
  <path d="M1459.98 668.095C1459.98 669.986 1460.9 671.433 1462.05 671.433C1463.2 671.433 1464.12 669.986 1464.23 668.095C1464.23 666.203 1463.31 664.757 1462.16 664.757C1461.02 664.757 1460.1 666.203 1459.98 668.095Z" fill="#F7A491" />
  <path d="M1449.42 677.997L1454.82 674.103C1454.82 674.103 1456.19 676.217 1453.9 677.997C1451.14 680.111 1449.42 677.997 1449.42 677.997Z" fill="white" />
  <path d="M1435.76 756.547C1437.14 754.656 1437.71 751.874 1439.55 749.649C1440.35 748.759 1441.27 747.98 1442.3 747.313C1451.37 742.195 1475.02 728.955 1475.94 727.842C1476.97 726.618 1493.16 700.583 1493.16 700.583L1478.7 697.357L1464.58 721.611C1463.43 722.501 1440.93 738.634 1440.93 738.634C1440.93 738.634 1436.45 741.972 1434.04 743.641C1432.89 744.309 1431.74 744.754 1430.59 745.199C1429.21 745.644 1426.8 746.868 1426.23 747.313C1425.66 747.869 1424.51 748.87 1423.82 749.538C1423.13 750.205 1422.21 750.873 1421.87 751.318C1421.52 751.652 1421.06 751.874 1420.6 752.097C1420.14 752.319 1420.03 752.764 1420.26 753.209C1420.37 753.432 1420.6 753.543 1420.83 753.654C1421.52 753.877 1422.44 753.432 1423.01 753.098C1424.62 752.319 1426.69 750.317 1426.69 750.539C1426.8 750.762 1424.74 755.101 1424.62 755.546C1424.51 755.991 1422.1 761.109 1421.98 762.11C1421.87 763.223 1422.56 763.445 1423.01 763.112C1423.47 762.778 1427.15 756.102 1427.15 756.102C1427.15 756.102 1427.61 755.212 1427.84 755.768C1428.07 756.213 1424.62 762.333 1424.28 763.334C1423.93 764.335 1424.16 765.114 1425.2 764.781C1426.34 764.335 1429.56 757.66 1429.56 757.66C1429.56 757.66 1430.02 756.77 1430.25 757.104C1430.48 757.437 1427.61 762.444 1427.49 763.112C1427.49 763.668 1428.07 764.335 1428.76 763.779C1429.67 763.223 1432.54 757.215 1432.54 757.215C1432.54 757.215 1432.89 756.881 1433 757.104C1433.12 757.326 1430.94 761.888 1431.05 762.555C1431.05 762.889 1431.4 763.112 1431.63 763C1432.89 763.223 1434.38 758.439 1435.76 756.547Z" fill="#F8A492" />
  <path d="M1489.37 714.491C1489.37 714.491 1484.67 713.044 1481.57 711.709C1479.5 710.819 1470.66 706.591 1470.66 706.591C1470.66 706.591 1474.45 691.015 1477.09 685.34C1486.5 664.757 1497.3 678.887 1498.79 682.336C1502 689.568 1489.37 714.491 1489.37 714.491Z" fill="#355389" />
  <path d="M1159.53 660.529L1164.01 657.303C1164.01 657.303 1165.27 659.083 1163.32 660.529C1160.91 662.421 1159.53 660.529 1159.53 660.529Z" fill="white" />
  <path d="M1033.7 325.301C1033.59 325.078 1033.36 325.078 1033.13 324.967C1030.72 324.967 1028.42 324.744 1026.12 324.411C1025.78 324.411 1025.32 324.299 1024.98 324.077C1024.4 323.854 1023.71 323.854 1023.02 323.966C1022.68 324.077 1022.33 324.077 1021.99 324.077C1020.84 324.077 1017.4 322.964 1015.68 322.631C1015.33 322.519 1014.99 322.297 1014.87 321.852C1013.15 315.287 1009.48 300.601 1009.02 295.705C1008.44 289.475 1003.97 261.66 1003.97 261.66L992.14 264.886C992.14 264.886 996.962 285.469 998.34 295.372C999.373 303.049 1007.3 319.404 1009.82 324.077C1011.08 327.637 1013.72 327.637 1014.41 327.749C1014.76 327.749 1015.1 327.971 1015.33 328.194C1015.79 328.75 1016.25 329.084 1016.82 329.417C1017.17 329.64 1017.51 329.974 1017.86 330.419C1018.43 331.086 1018.78 331.865 1019.24 332.644C1019.58 333.2 1019.81 333.312 1020.27 333.2C1020.73 333.089 1021.07 332.644 1020.96 332.199C1020.96 331.42 1020.73 330.641 1020.27 329.974C1019.92 329.417 1019.92 328.75 1020.38 328.305C1020.61 327.971 1020.96 327.637 1021.3 327.303C1021.65 326.97 1022.11 326.858 1022.56 326.858C1023.48 327.081 1024.29 327.192 1025.21 327.303L1025.89 327.415L1026.24 327.526C1026.24 327.526 1027.5 327.749 1027.96 327.749C1028.3 327.749 1028.88 327.749 1029.34 327.749C1029.8 327.749 1030.26 327.637 1030.72 327.526C1031.06 327.526 1031.52 327.303 1031.86 327.081C1031.98 326.97 1032.09 326.858 1032.09 326.636C1032.09 326.413 1031.86 326.413 1031.75 326.302C1031.4 326.302 1030.03 326.08 1030.03 325.968C1030.49 325.968 1031.86 325.968 1032.32 325.968C1032.9 325.968 1033.47 325.746 1033.82 325.301C1033.59 325.746 1033.7 325.523 1033.7 325.301Z" fill="#F7A491" />
  <path d="M996.733 247.418C1002.59 246.417 1007.29 271.562 1007.29 271.562C1007.29 271.562 994.436 275.122 991.107 273.231C991.107 273.231 987.318 257.098 986.055 257.654L996.733 247.418Z" fill="#9BC1F9" />
  <path d="M856.093 700.694C856.437 699.582 851.156 698.803 850.811 697.69C850.467 696.578 857.585 696.466 857.815 695.576C858.274 693.796 850.123 695.243 850.237 694.352C850.467 693.574 858.733 691.682 857.93 690.347C857.011 688.901 849.434 693.129 849.204 692.238C848.975 691.348 856.667 689.012 856.437 686.898C856.322 685.785 843.923 692.461 842.431 691.905C841.053 691.348 844.038 686.008 842.775 685.229C841.627 684.45 838.297 695.91 837.494 696.244C836.69 696.578 819.813 705.924 813.843 707.37C813.154 705.367 811.547 702.808 810.858 700.917C807.529 703.253 805.003 704.366 801.559 706.48C804.085 712.599 807.644 719.275 809.366 720.054C814.762 722.39 835.312 705.812 839.446 703.031C843.579 700.249 845.875 701.139 848.745 700.249C851.73 699.359 855.748 701.696 856.093 700.694Z" fill="#F7A491" />
  <path d="M800.985 709.484C800.985 709.484 796.393 689.68 797.196 684.005C798 678.331 805.003 672.879 809.94 674.882C814.877 676.885 817.058 704.477 817.058 704.477L800.985 709.484Z" fill="#F7CC7F" />
</svg>