<svg width="100%" height="100%" viewBox="0 0 1739 905" fill="none" xmlns="http://www.w3.org/2000/svg">
<path d="M1739 1.78333V905H0C17.9118 869.46 44.9912 831.017 85.4691 791.973C239.624 643.606 482.632 590.346 553.151 576.43C658.366 555.707 719.435 537.186 766.401 515.962C793.622 503.648 825.919 486.529 872.321 453.692C926.62 415.049 1004.33 351.877 1076.12 258.172C1090.79 236.247 1207.99 68.4584 1505.86 15.0983C1590.2 0.0814155 1669.19 -2.32129 1739 1.78333Z" fill="#5E17EB"/>
<path d="M1468.77 717.565C1473.74 718.412 1473.5 719.26 1474.1 719.26C1474.83 719.381 1483.8 714.902 1483.8 714.902C1483.8 714.902 1510.33 701.83 1511.79 700.982L1530.93 676.895L1545.71 683.673C1545.71 683.673 1524.14 709.334 1522.81 710.424C1521.48 711.513 1483.31 724.949 1480.04 726.159C1480.04 726.159 1476.77 729.185 1474.59 731.122C1472.41 733.059 1469.5 733.664 1468.89 734.148C1467.08 735.117 1465.02 735.843 1463.08 736.206C1460.17 736.811 1462.59 734.874 1462.59 734.874C1462.59 734.874 1467.68 732.696 1467.44 732.333C1467.2 731.969 1464.53 733.422 1461.38 734.148C1460.53 734.39 1459.69 734.511 1458.96 734.753C1457.02 735.117 1456.17 734.027 1458.11 733.301C1458.96 732.938 1459.93 732.575 1460.9 732.333C1461.87 732.09 1462.59 731.606 1463.44 731.364C1464.29 731.122 1465.26 730.759 1465.99 730.275C1465.87 730.154 1466.11 729.912 1465.26 730.033C1464.17 730.275 1462.11 731.243 1460.53 731.364C1459.57 731.485 1457.75 731.848 1457.75 731.848C1457.75 731.848 1454.48 732.211 1454.48 731.727C1454.48 730.759 1456.42 730.154 1457.75 730.154C1458.6 729.791 1459.57 729.548 1460.53 729.427C1460.53 729.427 1464.41 727.975 1464.17 727.37C1464.05 727.128 1461.75 727.491 1459.32 727.612C1456.78 727.854 1454.84 727.854 1454.72 727.249C1454.48 726.401 1456.54 726.159 1456.54 726.159C1456.54 726.159 1458.35 725.917 1458.96 725.796C1459.69 725.675 1461.75 724.949 1461.75 724.949C1461.75 724.949 1468.77 722.407 1468.53 721.802C1468.29 721.318 1467.08 720.228 1466.59 720.228C1466.11 720.228 1465.26 720.712 1464.78 720.712C1464.29 720.712 1463.2 720.591 1463.08 719.986C1462.96 719.381 1465.74 718.049 1465.74 718.049C1465.74 718.049 1467.32 717.323 1468.77 717.565Z" fill="#F8A492"/>
<path d="M1517.6 691.904C1517.6 691.904 1522.33 696.262 1524.39 697.714C1526.08 698.924 1534.08 702.798 1534.08 702.798C1534.08 702.798 1542.08 690.451 1545.59 684.399C1549.83 676.895 1552.74 665.88 1551.77 665.516C1548.98 664.669 1545.1 664.185 1541.47 665.759C1529.11 671.327 1517.6 691.904 1517.6 691.904Z" fill="white"/>
<path d="M1473.38 723.98C1471.2 724.344 1469.02 723.859 1468.17 721.923C1467.93 724.344 1471.44 725.433 1473.38 723.98Z" fill="#FE875E"/>
<path d="M878.722 637.919C879.085 630.777 877.995 623.756 874.724 617.099C871.937 611.41 865.152 608.142 858.973 608.142C839.345 608.142 836.8 634.166 824.321 644.213C820.444 647.239 816.203 649.781 812.568 653.049C799.241 665.274 805.177 687.909 817.536 698.561C826.017 705.945 839.345 710.182 849.886 704.371C855.338 701.345 859.457 696.262 862.486 690.815C866.727 682.947 869.393 673.989 872.422 665.516C875.693 656.68 878.358 647.481 878.722 637.919Z" fill="#13375B"/>
<path d="M881.872 672.537C875.693 653.896 867.575 654.259 867.575 654.259L874.118 693.841C877.874 692.751 882.841 690.572 886.597 689.483C885.507 683.552 883.447 677.137 881.872 672.537Z" fill="#04CC47"/>
<path d="M913.01 735.964L890.596 718.897C890.596 718.897 888.294 702.919 885.265 688.757C881.509 689.846 878.116 692.751 874.239 693.841L879.934 725.554L909.254 740.685L917.493 751.336L919.432 740.442L913.01 735.964Z" fill="#F48C7F"/>
<path d="M1117.41 709.213C1124.07 709.213 1130.74 710.908 1136.55 714.297C1137.28 714.66 1138.01 715.023 1138.85 715.386C1156.06 722.407 1174.96 709.334 1174.96 690.693V599.185H1083.36C1064.7 599.185 1051.62 580.302 1058.65 563.114C1059.01 562.387 1059.37 561.54 1059.74 560.814C1070.28 542.173 1063.73 518.449 1045.08 507.918C1038.65 504.286 1031.51 502.592 1024.11 502.955C1003.88 503.923 987.645 520.385 987.161 540.599C986.918 547.499 988.615 554.277 991.886 560.33C992.249 561.056 992.613 561.903 992.976 562.751C1000 580.302 986.676 599.306 967.775 599.306H877.026V807.864C877.026 857.007 917.009 896.952 966.2 896.952H1174.96V805.685C1174.96 786.923 1156.06 773.729 1138.73 780.871C1138.01 781.234 1137.16 781.597 1136.43 781.96C1117.65 792.37 1094.02 785.713 1083.6 767.072C1073.18 748.31 1079.85 724.707 1098.51 714.297C1104.2 710.908 1110.74 709.213 1117.41 709.213Z" fill="white"/>
<path d="M1315.99 658.496C1316.35 651.839 1318.29 645.302 1321.93 639.613C1322.41 638.887 1322.78 638.161 1323.14 637.313C1331.01 620.488 1318.78 601 1300.24 600.153L1208.64 595.916L1204.4 687.425C1203.55 706.066 1184.05 718.291 1167.21 710.303C1166.48 709.939 1165.63 709.576 1164.9 709.092C1146.73 697.714 1122.74 703.161 1111.35 721.196C1107.47 727.37 1105.41 734.632 1105.41 741.895C1105.41 762.109 1121.16 779.055 1141.4 780.629C1148.3 781.234 1155.21 779.782 1161.39 776.755C1162.12 776.392 1162.96 776.029 1163.81 775.787C1181.62 769.614 1200.04 783.776 1199.19 802.538L1194.95 893.199L1403.59 902.883C1452.78 905.183 1494.58 867.175 1496.88 818.031L1506.58 609.594L1415.34 605.358C1396.56 604.51 1382.63 622.788 1388.81 640.339C1389.05 641.187 1389.41 641.913 1389.78 642.76C1399.35 661.885 1391.59 685.247 1372.45 694.809C1353.31 704.371 1329.92 696.625 1320.35 677.5C1317.08 671.569 1315.75 665.032 1315.99 658.496Z" fill="#17EB5E"/>
<path d="M1060.95 514.454C1061.31 521.112 1059.86 527.89 1056.83 533.821C1056.46 534.547 1056.1 535.395 1055.86 536.242C1049.68 553.793 1063.73 571.95 1082.27 570.981L1173.75 566.382L1169.14 474.994C1168.17 456.474 1186.35 442.312 1203.92 448.606C1204.76 448.849 1205.49 449.212 1206.34 449.575C1225.48 459.258 1248.87 451.512 1258.44 432.387C1261.71 425.729 1263.16 418.467 1262.44 411.083C1260.5 390.99 1243.17 375.617 1222.94 376.101C1216.03 376.222 1209.37 378.28 1203.43 381.79C1202.71 382.275 1201.98 382.638 1201.13 383.001C1184.05 390.869 1164.3 378.522 1163.33 359.761L1158.72 269.099L950.085 279.509C900.894 281.93 863.092 323.811 865.515 372.954L875.935 581.27L967.169 576.671C985.949 575.702 998.065 556.214 990.189 539.268C989.826 538.542 989.463 537.694 988.978 536.968C977.589 518.812 983.041 494.845 1001.22 483.467C1019.39 472.089 1043.38 477.536 1054.77 495.692C1058.52 501.381 1060.58 507.797 1060.95 514.454Z" fill="#17EB5E"/>
<path d="M1248.26 463.979C1241.6 463.979 1234.93 462.284 1229.12 458.895C1228.39 458.532 1227.66 458.169 1226.82 457.806C1209.61 450.785 1190.71 463.858 1190.71 482.499V574.008H1282.31C1300.97 574.008 1314.05 592.89 1306.9 610.078C1306.54 610.805 1306.18 611.652 1305.81 612.378C1295.27 631.019 1301.81 654.744 1320.47 665.274C1326.89 668.906 1334.16 670.6 1341.43 670.237C1361.67 669.269 1377.9 652.807 1378.39 632.593C1378.63 625.693 1376.93 618.915 1373.66 612.862C1373.3 612.136 1372.94 611.289 1372.57 610.442C1365.55 592.89 1378.87 573.886 1397.77 573.886H1488.64V365.45C1488.64 316.306 1448.66 276.362 1399.47 276.362H1190.71V367.628C1190.71 386.39 1209.61 399.584 1226.94 392.442C1227.79 392.079 1228.51 391.716 1229.24 391.353C1248.02 380.943 1271.65 387.601 1282.07 406.241C1292.49 424.882 1285.82 448.606 1267.16 459.016C1261.47 462.284 1254.93 463.979 1248.26 463.979Z" fill="white"/>
<path d="M817.293 867.901C817.293 867.901 815.961 877.464 813.537 880.611C812.689 881.7 811.235 883.032 810.266 884.847C808.812 887.752 809.539 892.11 810.751 894.531C811.357 895.741 810.751 895.741 811.962 896.225C815.839 897.315 819.838 895.499 821.413 891.747C822.503 889.205 823.23 886.421 823.23 883.516C823.594 874.801 826.38 870.322 826.38 870.322L817.293 867.901Z" fill="#F7A491"/>
<path d="M858.973 872.38C858.973 872.38 859.821 883.153 859.094 886.784C858.73 888.721 856.671 892.594 857.64 894.289C858.609 896.104 859.7 896.467 859.7 896.467L884.295 896.831C885.628 896.831 884.78 895.983 883.689 895.136C881.872 893.804 880.539 892.957 874.845 890.173C874.481 889.931 873.149 889.084 872.664 888.842C871.331 887.994 870.12 886.905 869.15 885.695C867.333 883.758 867.212 874.195 867.212 874.195L858.973 872.38Z" fill="#F7A491"/>
<path d="M878.237 728.338C878.237 728.338 881.388 745.889 879.328 757.51C877.268 769.009 867.575 876.011 867.575 876.011L856.792 876.616C856.792 876.616 854.49 831.951 854.975 825.778C855.338 819.605 858.609 809.195 858.609 809.195L857.519 773.124L871.21 725.796L878.237 728.338Z" fill="#355389"/>
<path d="M846.251 724.586C846.251 724.586 837.77 737.416 835.71 748.068C833.65 758.72 837.164 791.402 833.287 805.443C831.227 812.947 823.109 824.689 821.898 834.372C820.686 844.177 815.84 869.717 815.84 869.717L826.623 871.896L851.824 808.106L871.573 750.368L876.662 720.712L846.251 724.586Z" fill="#466EB6"/>
<path d="M853.278 651.354C853.278 651.354 842.01 650.628 837.527 655.47C833.044 660.312 847.463 698.924 848.311 705.219C849.159 711.513 844.191 727.975 844.191 727.975C844.191 727.975 870.725 733.301 878.358 728.338C878.358 728.338 879.207 683.673 878.358 679.194C877.51 674.716 870.725 656.68 869.15 654.986C867.333 653.17 853.278 651.354 853.278 651.354Z" fill="#17EB5E"/>
<path d="M857.034 636.224C857.034 636.224 857.034 636.587 856.792 637.192C856.307 639.976 854.368 648.933 853.036 651.475C851.461 654.501 858.488 664.064 865.152 662.853C867.212 662.49 863.456 654.017 863.698 653.17C864.061 651.475 864.546 649.176 865.031 646.755C865.273 645.423 865.636 643.971 865.758 642.76L867.09 636.103L857.034 636.224Z" fill="#F7A491"/>
<path d="M856.792 637.192C856.913 636.587 857.034 636.224 857.034 636.224L867.091 635.982L865.758 642.639C865.515 643.971 865.152 645.302 865.031 646.634C863.213 646.271 861.517 645.423 860.184 644.213C858.488 642.76 857.277 640.824 856.55 638.766C856.671 638.161 856.792 637.555 856.792 637.192Z" fill="#F47458"/>
<path d="M863.819 613.226C863.819 613.226 859.094 612.62 856.065 616.494C853.036 620.367 849.886 632.351 857.277 638.887C864.667 645.423 872.058 638.04 873.149 630.293C874.239 622.546 874.602 612.984 863.819 613.226Z" fill="#F7A491"/>
<path d="M875.329 630.172C874.481 631.866 872.906 632.835 872.058 632.351C871.089 631.745 871.089 629.93 871.937 628.235C872.785 626.54 874.36 625.572 875.208 626.056C876.056 626.54 876.177 628.356 875.329 630.172Z" fill="#F7A491"/>
<path d="M864.304 612.015C864.304 612.015 857.882 623.393 853.399 623.998C848.795 624.604 848.311 630.535 848.311 630.535C848.311 630.535 850.007 616.615 854.49 613.952C858.852 611.168 864.304 612.015 864.304 612.015Z" fill="#13375B"/>
<path d="M822.261 889.81C816.324 890.899 812.447 887.389 810.387 884.847C808.933 887.752 808.206 892.231 809.297 894.531C810.266 896.71 813.174 896.588 815.355 896.71C817.778 896.831 819.595 895.499 820.686 893.441C821.292 892.352 821.897 891.142 822.261 889.81Z" fill="#F47458"/>
<path d="M872.543 889.084C866 890.778 861.275 889.689 858.609 888.479C857.882 890.415 857.034 892.957 857.519 894.289C858.125 895.983 858.973 896.467 859.7 896.467C865.637 896.589 881.509 896.831 885.992 896.831C886.355 896.831 886.718 896.467 886.718 896.104C886.718 895.862 886.718 895.741 886.476 895.62C885.386 894.41 873.148 889.326 872.543 889.084Z" fill="#F47458"/>
<path d="M854.611 626.782C854.975 628.84 854.248 630.656 852.915 630.898C851.582 631.14 850.249 629.809 849.886 627.751C849.522 625.693 850.249 623.877 851.582 623.635C852.915 623.272 854.248 624.725 854.611 626.782Z" fill="#F7A491"/>
<path d="M862.002 633.682L867.696 633.924C867.696 633.924 867.454 636.103 864.91 636.103C861.881 636.103 862.002 633.682 862.002 633.682Z" fill="white"/>
<path d="M1352.1 175.895C1352.82 175.895 1354.76 176.622 1357.67 181.948C1361.3 188.847 1366.64 209.788 1366.64 209.788L1350.64 215.719L1348.58 211.361L1345.19 177.832C1345.31 177.832 1351.97 175.895 1352.1 175.895Z" fill="#04CC47"/>
<path d="M1331.01 172.869C1335.62 172.869 1346.89 174.201 1352.1 175.895C1352.1 175.895 1355.97 208.94 1348.58 234.117C1346.89 239.806 1349.92 257.479 1349.92 257.479L1302.54 256.874C1302.54 256.874 1308.11 214.024 1306.06 207.125C1304 200.225 1303.87 176.138 1303.87 176.138C1303.87 176.138 1304.24 176.138 1314.54 174.322C1320.11 173.354 1325.56 172.869 1331.01 172.869Z" fill="#17EB5E"/>
<path d="M1325.56 318.969C1325.56 318.969 1326.65 331.073 1328.47 334.341C1330.41 337.731 1328.35 343.299 1328.23 344.146C1328.11 344.993 1324.23 346.083 1317.93 345.356C1311.63 344.63 1311.75 343.178 1312.23 340.878C1312.72 338.578 1316.11 335.552 1316.23 333.252C1316.35 330.952 1314.29 322.963 1314.29 322.963L1325.56 318.969Z" fill="#F7A491"/>
<path d="M1344.71 247.553C1344.71 247.553 1377.42 245.738 1384.69 250.095C1391.96 254.453 1379.48 276.119 1379.48 276.119C1379.48 276.119 1356.7 275.03 1312.23 277.693C1301.69 278.298 1300.72 250.216 1302.78 247.916C1304.72 245.617 1344.71 247.553 1344.71 247.553Z" fill="#355389"/>
<path d="M1317.2 346.325C1310.78 345.598 1311.51 342.451 1312.11 340.03C1312.48 338.578 1314.29 336.762 1315.38 335.068C1315.99 335.552 1316.84 336.399 1319.75 337.125C1322.65 337.973 1326.65 336.278 1329.2 335.189C1329.92 337.973 1330.17 340.757 1330.04 343.541C1329.8 344.388 1323.62 347.051 1317.2 346.325Z" fill="#DD513A"/>
<path d="M1320.72 270.915C1322.05 280.84 1328.47 329.984 1328.47 329.984L1313.45 331.799C1313.45 331.799 1295.03 267.646 1296 257.842C1296.97 248.037 1303.87 247.19 1303.87 247.19C1303.87 247.19 1317.2 244.769 1320.72 270.915Z" fill="#466EB6"/>
<path d="M1303.51 179.769C1307.87 178.074 1310.17 217.898 1310.66 234.359C1318.53 235.086 1332.1 234.359 1335.62 234.117C1337.19 233.996 1340.95 232.665 1342.52 232.423C1343.86 232.181 1345.07 232.181 1346.4 232.181C1346.64 232.181 1354.88 235.57 1355.61 236.296C1356.46 237.265 1358.76 239.443 1358.4 240.533C1358.03 241.501 1353.91 237.749 1353.91 237.749L1351.85 236.659C1354.4 239.08 1359.12 242.348 1358.52 243.438C1357.79 244.648 1353.55 241.259 1350.4 239.08C1353.07 241.501 1356.34 245.738 1355.49 246.343C1354.76 246.948 1351.13 241.985 1347.13 240.654C1345.67 240.17 1344.22 241.622 1343.01 241.743C1342.16 241.864 1340.83 242.106 1339.98 241.985L1335.74 240.775C1334.29 240.896 1334.29 241.743 1332.71 242.106C1331.01 242.469 1328.11 242.833 1325.93 243.438C1313.32 246.585 1309.08 247.916 1305.21 247.916C1293.7 247.795 1292.97 183.763 1303.51 179.769Z" fill="#F7A491"/>
<path d="M1295.15 217.171C1294.3 200.346 1294.42 179.648 1303.87 176.138C1307.63 174.685 1314.17 183.158 1312.96 217.534C1307.87 217.898 1300.48 218.261 1295.15 217.171Z" fill="#04CC47"/>
<path d="M1369.42 329.258C1369.42 329.258 1368.09 333.494 1370.51 336.278C1372.94 339.062 1382.63 341.725 1383.84 343.299C1385.17 344.751 1385.05 346.083 1385.05 346.083L1357.67 345.356L1358.03 337.125L1359.37 331.194L1369.42 329.258Z" fill="#F7A491"/>
<path d="M1372.09 337.61C1372.09 337.61 1365.06 340.394 1361.67 338.699C1358.28 337.004 1358.4 336.52 1357.43 337.246C1356.46 337.852 1356.09 345.598 1356.09 345.598L1386.87 346.567C1389.05 346.567 1390.14 344.872 1388.32 343.662C1387.23 342.935 1386.14 342.209 1384.93 341.604C1382.51 340.152 1372.09 337.61 1372.09 337.61Z" fill="#DD513A"/>
<path d="M1368.33 255.3C1370.39 250.821 1375.24 245.011 1383.72 248.522C1391.84 251.79 1393.9 260.021 1391.47 268.373C1388.93 276.725 1372.21 325.868 1371.6 332.647L1358.15 332.768C1358.15 332.768 1360.58 293.913 1361.18 284.471C1361.67 275.272 1364.7 262.926 1368.33 255.3Z" fill="#466EB6"/>
<path d="M1390.02 210.03H1345.31C1344.1 210.03 1343.13 210.756 1342.65 211.845L1328.83 245.495H1304.24C1303.51 245.495 1303.03 246.101 1303.03 246.706C1303.03 247.432 1303.63 247.916 1304.24 247.916H1374.39C1376.33 247.916 1378.02 246.827 1378.87 245.011L1392.69 214.024C1393.41 212.572 1392.69 210.877 1391.23 210.151C1390.87 210.03 1390.5 210.03 1390.02 210.03Z" fill="black"/>
<path d="M1366.03 229.639C1365.67 231.091 1364.33 232.181 1363.12 231.939C1361.79 231.697 1360.94 230.244 1361.3 228.67C1361.55 227.218 1363 226.129 1364.21 226.371C1365.54 226.613 1366.27 228.065 1366.03 229.639Z" fill="white"/>
<path d="M1341.68 132.441C1340.34 131.957 1339.01 131.473 1337.68 130.867C1336.22 130.141 1334.41 129.415 1333.2 129.173C1330.65 128.81 1326.41 129.052 1323.99 131.594C1321.08 134.741 1315.75 132.199 1316.84 148.903C1318.05 167.786 1328.59 165.728 1328.83 165.365C1329.08 165.002 1338.16 153.26 1338.16 153.26C1338.16 153.26 1341.31 160.281 1341.31 160.039C1341.43 159.797 1357.79 137.888 1341.68 132.441Z" fill="#0E2E35"/>
<path d="M1333.68 166.817L1334.65 173.596C1334.65 173.596 1336.71 183.279 1334.04 185.216C1331.38 187.153 1322.9 173.233 1322.9 173.233L1323.87 156.044L1333.68 166.817Z" fill="#F7A491"/>
<path d="M1323.5 161.733C1325.68 167.543 1330.89 171.175 1334.53 172.506L1333.8 166.817L1323.87 156.165L1323.5 161.733Z" fill="#F47458"/>
<path d="M1333.07 137.525C1338.04 136.798 1342.65 140.188 1343.37 145.029C1343.49 145.514 1343.49 146.119 1343.49 146.603C1343.49 149.508 1343.13 152.413 1342.77 155.318C1341.56 163.186 1336.22 169.964 1332.71 169.359C1329.2 168.754 1320.35 161.975 1321.93 150.839C1322.78 144.061 1327.26 138.493 1333.07 137.525Z" fill="#F7A491"/>
<path d="M1324.23 152.292C1323.87 153.987 1322.53 155.197 1321.08 154.955C1319.63 154.713 1318.78 153.139 1319.02 151.445C1319.26 149.75 1320.72 148.54 1322.17 148.782C1323.62 148.903 1324.59 150.597 1324.23 152.292Z" fill="#F7A491"/>
<path d="M1322.29 148.661C1322.29 148.661 1326.53 149.75 1328.11 146.966C1329.68 144.182 1335.38 138.372 1342.52 140.793C1349.67 143.214 1336.22 134.862 1335.62 134.862H1328.11C1328.11 134.862 1322.78 139.219 1322.65 139.703C1322.41 140.188 1320.96 145.392 1320.96 145.392L1322.29 148.661Z" fill="#0E2E35"/>
<path d="M1330.17 160.16L1337.92 161.612C1337.92 161.612 1337.19 164.517 1333.68 164.033C1329.56 163.307 1330.17 160.16 1330.17 160.16Z" fill="white"/>
<path d="M1198.83 700.135C1199.07 700.861 1199.31 701.587 1199.68 702.193C1202.1 706.55 1207.79 712.965 1207.79 712.965L1212.16 703.161C1212.16 703.161 1211.43 700.014 1210.22 695.656C1205.98 696.625 1201.86 697.23 1198.83 700.135Z" fill="#F8A492"/>
<path d="M1223.79 691.541C1223.79 691.541 1199.43 701.95 1198.59 701.829C1198.1 701.708 1188.65 685.852 1188.53 670.963C1188.53 664.064 1195.68 655.712 1203.67 657.406C1207.67 658.254 1207.67 659.343 1213.61 668.058C1219.55 676.652 1223.79 691.541 1223.79 691.541Z" fill="white"/>
<path d="M1244.63 879.521L1244.02 889.084C1243.78 890.294 1242.93 893.32 1242.93 894.41C1242.93 898.525 1262.68 890.899 1258.2 889.084C1257.83 888.842 1255.65 887.631 1255.53 886.3C1255.29 884.121 1254.8 879.763 1254.8 879.763L1244.63 879.521Z" fill="#F7A491"/>
<path d="M1258.2 889.084C1258.2 889.084 1253.59 890.415 1251.17 890.657C1248.75 891.02 1245.72 888.236 1244.02 888.963C1242.2 889.689 1242.2 896.831 1242.2 896.831C1242.2 896.831 1267.04 898.888 1273.95 896.709C1276.86 895.983 1267.65 891.989 1258.2 889.084Z" fill="#DD513A"/>
<path d="M1204.28 879.521L1203.67 889.084C1203.43 890.294 1202.58 893.32 1202.58 894.41C1202.58 898.525 1222.33 890.899 1217.85 889.084C1217.49 888.842 1214.7 886.663 1214.58 885.332C1214.34 883.153 1214.46 879.642 1214.46 879.642L1204.28 879.521Z" fill="#F7A491"/>
<path d="M1217.97 889.084C1217.97 889.084 1213.37 890.415 1210.94 890.657C1208.52 891.02 1205.49 888.236 1203.8 888.963C1201.98 889.689 1201.86 896.831 1201.86 896.831C1201.86 896.831 1226.82 899.251 1233.84 896.709C1236.51 895.862 1227.42 891.989 1217.97 889.084Z" fill="#DD513A"/>
<path d="M1210.34 705.34L1227.66 681.01C1227.79 680.768 1227.91 680.405 1228.15 679.679C1229 677.258 1230.81 672.295 1232.39 667.211C1232.87 665.516 1233.96 662.49 1234.93 659.464C1236.02 656.196 1237.48 652.081 1237.48 651.475C1237.48 651.354 1237.36 651.112 1237.24 650.87C1236.63 649.176 1235.78 645.302 1235.42 643.608C1235.18 642.518 1235.06 639.855 1236.39 639.855C1238.45 639.855 1237.48 642.518 1238.45 644.092C1239.05 642.276 1239.54 640.46 1239.9 638.645L1240.27 633.561C1240.27 633.198 1239.9 630.293 1241.36 630.293H1241.48C1242.81 630.414 1242.81 633.44 1243.29 638.524C1243.54 637.919 1243.66 637.192 1243.78 636.587C1243.9 635.619 1244.02 634.771 1244.26 633.924C1244.02 632.472 1244.14 630.293 1245.72 630.414C1246.44 630.535 1246.44 633.682 1246.44 633.682C1246.44 634.045 1246.44 637.434 1246.44 638.04C1246.57 636.95 1247.17 632.229 1248.38 632.229C1249.35 632.229 1249.47 633.561 1249.47 634.529C1249.47 635.135 1248.87 640.218 1248.75 640.945C1249.23 640.218 1249.72 635.619 1250.2 635.619C1252.14 635.619 1251.41 642.034 1250.68 643.729C1250.56 644.092 1250.44 644.334 1250.44 644.697C1250.2 646.392 1249.59 647.965 1248.75 649.539C1247.53 651.596 1245.84 654.865 1245.6 655.349C1245.35 656.438 1244.87 660.069 1244.14 664.669C1243.78 666.727 1243.54 668.906 1243.17 671.084C1243.05 671.569 1242.81 673.142 1241.36 678.952C1239.54 686.941 1239.3 687.304 1239.17 687.425C1238.33 688.878 1219.67 714.176 1218.82 715.265L1218.34 715.871L1210.34 705.34Z" fill="#F7A491"/>
<path d="M1242.57 648.691C1242.57 648.691 1241.11 645.06 1238.69 645.06C1239.66 644.818 1240.51 644.939 1241.23 645.544C1242.57 646.513 1242.57 648.691 1242.57 648.691Z" fill="#F47458"/>
<path d="M1206.22 641.792L1204.04 655.954C1204.04 655.954 1212.52 662.732 1217.49 661.28C1221.61 660.069 1218.82 654.622 1218.82 654.622C1218.82 654.622 1216.64 647.118 1217.24 643.123C1217.85 639.25 1206.22 641.792 1206.22 641.792Z" fill="#F7A491"/>
<path d="M1207.79 646.028C1210.82 647.36 1214.09 648.328 1217.49 648.812C1217.12 646.876 1217 644.818 1217.24 643.244C1217.61 641.429 1215.18 641.066 1212.64 641.066C1209.25 641.308 1206.22 641.913 1206.22 641.913L1205.73 644.697C1206.34 645.181 1206.95 645.665 1207.79 646.028Z" fill="#FE875E"/>
<path d="M1195.44 625.451C1195.07 625.451 1198.83 641.187 1204.52 643.971C1210.22 646.634 1218.82 645.302 1220.52 641.066C1222.33 636.345 1215.79 620.246 1207.67 618.188C1199.56 616.131 1195.44 625.451 1195.44 625.451Z" fill="#F7A491"/>
<path d="M1202.1 611.047C1198.83 612.984 1196.28 615.768 1194.71 619.278C1192.53 620.367 1189.98 622.546 1188.65 628.477C1187.08 635.861 1192.53 641.429 1198.34 643.123C1204.16 644.818 1205.01 648.691 1205.01 648.691L1205.61 644.576C1205.61 644.576 1204.28 640.945 1202.34 639.129C1200.4 637.313 1203.31 634.771 1203.55 632.593C1203.8 630.898 1202.58 627.751 1202.83 625.088C1202.83 625.088 1206.1 620.246 1209.25 619.036C1214.7 616.857 1208.04 607.658 1202.1 611.047Z" fill="#13375B"/>
<path d="M1204.52 635.256C1205.25 637.071 1205.01 638.887 1203.8 639.25C1202.71 639.613 1201.13 638.524 1200.4 636.708C1199.68 634.892 1199.92 633.077 1201.13 632.714C1202.22 632.229 1203.8 633.44 1204.52 635.256Z" fill="#F7A491"/>
<path d="M1225.97 705.824L1259.41 700.377C1259.41 700.377 1255.53 690.815 1254.32 690.815C1253.11 690.815 1229 701.224 1229 701.224L1227.06 705.098L1225.97 705.824Z" fill="#F8A492"/>
<path d="M1208.76 728.701C1208.76 728.701 1205.49 744.8 1206.82 757.025C1208.16 769.251 1208.28 812.705 1208.28 812.705L1203.07 882.184L1215.43 882.426C1215.43 882.426 1230.09 812.947 1229.72 814.763C1229.36 816.579 1234.69 765.862 1234.69 765.862L1217.24 727.128L1208.76 728.701Z" fill="#184655"/>
<path d="M1212.03 727.975C1212.03 727.975 1209.85 742.5 1212.64 748.915C1215.43 755.331 1236.02 817.789 1236.27 822.873C1236.51 827.957 1243.42 884.363 1243.42 884.363L1257.71 884L1260.86 821.42L1254.32 742.742L1248.02 722.891L1212.03 727.975Z" fill="#13375B"/>
<path d="M1203.92 655.954C1203.92 655.954 1207.43 658.254 1210.7 658.012C1213.97 657.77 1218.7 654.744 1218.7 654.744L1218.09 652.565C1218.09 652.565 1209.61 651.354 1209.37 651.475C1209.13 651.475 1203.92 655.954 1203.92 655.954Z" fill="#F7A491"/>
<path d="M1241.6 690.209C1241.6 690.209 1254.32 702.072 1260.01 700.135C1265.71 698.077 1268.13 691.178 1254.2 680.889C1241.6 671.811 1241.6 690.209 1241.6 690.209Z" fill="#F8A492"/>
<path d="M1250.2 704.977C1248.38 694.688 1234.69 662.975 1233.6 657.043C1233 654.138 1225.73 654.138 1218.7 654.502C1211.31 654.865 1203.92 655.833 1203.92 655.833C1203.92 655.833 1197.37 656.922 1194.47 659.585C1191.56 662.248 1190.83 669.753 1194.95 683.915C1198.22 695.051 1202.34 701.224 1204.28 709.455C1204.64 712.239 1205.01 714.902 1205.49 718.049C1206.22 730.275 1205.49 746.253 1205.49 746.253C1205.49 746.253 1241.11 753.636 1254.56 742.379C1254.44 742.5 1252.02 715.507 1250.2 704.977Z" fill="white"/>
<path d="M1259.29 683.068C1259.29 683.068 1245.35 694.567 1244.51 694.567C1243.9 694.567 1224.51 680.284 1220.03 668.543C1217.61 662.006 1222.82 654.744 1228.63 654.744C1232.75 654.744 1234.57 655.833 1242.81 662.732C1251.05 669.632 1259.29 683.068 1259.29 683.068Z" fill="white"/>
<path d="M1013.21 168.028C1015.51 162.581 1017.81 157.013 1023.75 154.229C1028.6 151.929 1033.57 152.776 1037.93 156.044C1050.04 165.123 1039.5 175.169 1053.31 192.478C1057.55 197.804 1062.76 202.162 1065.31 208.456C1068.94 217.292 1064.58 221.529 1057.8 225.644C1024.84 245.738 1007.64 204.462 1008.24 194.899C1008.73 187.879 1011.63 171.538 1013.21 168.028Z" fill="#13375B"/>
<path d="M979.043 275.393C980.376 275.151 983.768 272.73 984.98 272.488C985.949 272.246 987.888 272.004 988.736 271.883C989.826 268.01 995.036 246.948 995.642 240.654C996.248 233.875 1000.97 204.946 1000.97 204.946L1013.33 207.125C1013.33 207.125 1008.24 229.518 1006.79 240.291C1005.58 249.611 995.399 270.551 994.067 272.73C994.067 272.73 994.067 272.851 994.067 272.972C993.824 276.241 992.249 275.151 992.249 275.151L989.705 275.756C989.705 275.756 980.618 276.604 980.012 276.846C979.406 277.088 977.71 275.514 979.043 275.393Z" fill="#F7A491"/>
<path d="M1011.76 188C1003.03 190.905 998.186 214.508 998.186 214.508C998.186 214.508 1011.76 218.382 1015.27 216.324C1015.27 216.324 1019.27 198.773 1020.6 199.378L1011.76 188Z" fill="#5E17EB"/>
<path d="M944.512 316.185C942.695 320.906 941.362 325.747 940.393 330.71C940.393 331.073 940.877 333.01 940.877 333.494C935.546 340.757 927.792 342.33 921.249 342.814C924.521 339.546 929.488 336.399 929.731 335.431C931.306 329.137 932.517 322.721 933.123 316.306C937.242 318.122 940.029 316.548 944.512 316.185Z" fill="#F7A491"/>
<path d="M1020.24 237.749L1031.99 270.794C1031.99 270.794 1013.09 274.304 1006.06 275.635C999.034 276.967 959.657 278.661 958.567 279.388C957.84 279.872 949.722 306.259 946.087 320.663C941.968 321.632 934.94 320.421 931.184 319.211C933.244 298.513 940.514 265.589 942.937 261.957C946.572 256.147 1020.24 237.749 1020.24 237.749Z" fill="#355389"/>
<path d="M974.318 330.589C973.469 335.552 972.985 340.636 972.985 345.72C972.985 346.083 973.954 347.898 973.954 348.261C970.077 356.371 962.807 359.397 956.507 361.092C959.172 357.219 963.413 353.224 963.534 352.256C963.898 345.841 963.898 339.304 963.292 332.768C967.533 333.857 969.956 331.921 974.318 330.589Z" fill="#F7A491"/>
<path d="M1033.93 239.443L1038.53 247.19C1044.71 257.842 1041.2 271.52 1030.54 277.693C1029.57 278.298 1028.48 278.782 1027.39 279.146L1027.14 279.267C1020.48 281.809 982.072 290.887 981.224 291.855C980.618 292.46 977.589 319.937 976.62 334.826C972.743 336.52 965.594 336.762 961.717 336.157C959.778 315.338 960.869 281.687 962.444 277.693C965.109 271.278 1033.93 239.443 1033.93 239.443Z" fill="#466EB6"/>
<path d="M972.379 345.962C973.348 344.872 977.104 351.045 978.073 352.377C979.164 353.829 978.8 354.919 978.679 355.282C978.316 355.887 958.567 367.507 953.72 368.355C953.236 368.355 952.751 368.234 952.266 367.992C950.449 366.297 959.051 354.072 962.928 352.377C965.473 351.166 967.775 351.045 972.379 345.962Z" fill="#13375B"/>
<path d="M939.787 330.952C940.998 329.984 943.543 336.762 944.149 338.336C944.875 340.03 944.391 341.12 944.27 341.241C943.785 341.846 922.219 349.472 917.251 349.472C916.766 349.472 916.282 349.23 915.918 348.867C914.343 346.809 925.248 336.399 929.367 335.552C932.033 334.826 934.213 335.068 939.787 330.952Z" fill="#13375B"/>
<path d="M1020 188C1019.63 188 1019.39 187.879 1019.15 187.758C1017.57 187.516 1014.06 187.031 1011.27 188.242C1008 189.694 1002.79 202.767 1003.03 216.324C1003.15 218.382 1003.27 220.197 1003.4 221.529C1004.24 231.697 1007.15 250.821 1007.27 250.942C1011.27 253.484 1035.26 243.559 1036.96 241.38C1038.65 239.201 1039.62 212.693 1040.35 211.361L1041.93 188.242C1039.26 187.516 1024.24 188 1020 188Z" fill="#5E17EB"/>
<path d="M1029.69 179.527C1029.69 179.527 1028.11 187.516 1028.48 190.663C1028.84 193.81 1027.26 203.978 1020.6 203.978C1013.94 203.978 1019.27 191.026 1020 188C1020.6 184.853 1020.72 175.29 1020.72 175.29L1029.69 179.527Z" fill="#F7A491"/>
<path d="M1020.6 180.132C1020.72 177.469 1020.72 175.411 1020.72 175.411L1029.69 179.648C1029.69 179.648 1029.32 181.342 1029.08 183.4C1025.21 184.005 1022.42 182.553 1020.6 180.132Z" fill="#F47458"/>
<path d="M1033.08 157.376C1035.26 158.828 1036.96 160.886 1037.81 163.428C1039.14 167.543 1037.56 178.316 1028.72 180.858C1019.75 183.4 1015.88 174.927 1017.81 168.391C1019.51 161.733 1023.51 153.381 1033.08 157.376Z" fill="#F7A491"/>
<path d="M1016.6 165.849C1016.84 167.664 1017.69 168.996 1018.78 168.875C1019.87 168.754 1020.48 167.18 1020.36 165.486C1020.12 163.67 1019.27 162.339 1018.18 162.46C1017.09 162.581 1016.36 164.033 1016.6 165.849Z" fill="#F7A491"/>
<path d="M1031.99 156.892C1031.99 156.892 1033.57 168.875 1037.44 171.054C1041.32 173.232 1039.62 178.558 1039.62 178.558C1039.62 178.558 1043.14 166.212 1040.11 162.339C1037.08 158.223 1031.99 156.892 1031.99 156.892Z" fill="#13375B"/>
<path d="M1035.14 172.627C1034.05 174.201 1034.05 176.017 1035.14 176.743C1036.23 177.469 1037.93 176.743 1038.9 175.169C1039.87 173.596 1039.99 171.78 1038.9 171.054C1037.93 170.448 1036.23 171.054 1035.14 172.627Z" fill="#F7A491"/>
<path d="M1022.18 173.354L1028.48 174.927C1028.48 174.927 1027.75 177.348 1024.96 176.743C1021.57 175.895 1022.18 173.354 1022.18 173.354Z" fill="white"/>
<path d="M1053.44 274.304L1080.58 272.972C1080.58 272.972 1069.43 280.961 1069.19 280.961C1068.94 280.961 1060.34 277.572 1059.98 277.572C1059.49 277.572 1053.44 274.304 1053.44 274.304Z" fill="#50BFA5"/>
<path d="M1596.11 879.885C1596.11 879.885 1596.72 889.205 1596.72 889.326C1596.96 890.536 1597.69 893.441 1597.69 894.531C1597.69 898.646 1579.64 891.021 1583.63 889.205C1584 888.963 1585.94 887.752 1586.06 886.421C1586.3 884.242 1586.66 880.006 1586.66 880.006L1596.11 879.885Z" fill="#F7A491"/>
<path d="M1583.39 889.326C1585.45 889.931 1587.63 890.415 1589.81 890.899C1591.99 891.263 1594.9 888.6 1596.36 889.326C1598.05 890.052 1598.05 897.073 1598.05 897.073C1598.05 897.073 1575.27 899.13 1568.85 896.952C1566.31 896.225 1574.67 892.231 1583.39 889.326Z" fill="#F7CC7F"/>
<path d="M1626.28 879.4C1626.28 879.4 1626.89 888.721 1626.89 888.842C1627.13 890.052 1627.86 892.957 1627.86 894.047C1627.86 898.041 1609.8 890.536 1613.8 888.721C1614.17 888.479 1616.71 886.421 1616.71 884.968C1616.95 882.79 1616.83 879.4 1616.83 879.4H1626.28Z" fill="#F7A491"/>
<path d="M1613.8 888.721C1615.86 889.326 1618.04 889.81 1620.22 890.294C1622.41 890.657 1625.31 887.994 1626.77 888.721C1628.46 889.447 1628.58 896.467 1628.58 896.467C1628.58 896.467 1606.05 897.436 1599.26 896.346C1596.6 895.983 1605.08 891.626 1613.8 888.721Z" fill="#F7CC7F"/>
<path d="M1620.83 730.154C1620.83 730.154 1623.86 746.01 1622.65 757.994C1621.44 769.977 1621.31 812.705 1621.31 812.705L1627.01 880.974L1614.65 881.216C1614.65 881.216 1601.2 812.947 1601.44 814.763C1601.69 816.579 1596.96 766.709 1596.96 766.709L1612.95 728.701L1620.83 730.154Z" fill="#355389"/>
<path d="M1616.59 719.986C1616.59 719.986 1630.52 734.632 1625.31 750.61C1623.25 757.025 1603.87 818.273 1603.63 823.236C1603.38 828.199 1597.08 883.637 1597.08 883.637L1583.88 883.274L1580.97 821.784L1584.72 738.869L1592.72 724.949L1616.59 719.986Z" fill="#466EB6"/>
<path d="M1532.26 672.416C1536.87 667.332 1546.68 660.069 1546.68 660.069C1546.68 660.069 1552.62 654.986 1554.92 654.259C1558.43 653.049 1564.49 649.781 1573.34 663.096C1579.64 672.658 1619.13 721.802 1625.68 723.496L1583.27 743.832C1582.06 734.148 1561.1 715.871 1558.07 712.481C1551.41 704.735 1528.02 677.258 1532.26 672.416Z" fill="white"/>
<path d="M1534.32 651.839L1547.53 659.585C1547.53 659.585 1547.89 670.842 1543.53 673.747C1539.9 676.168 1537.11 670.237 1537.11 670.237C1537.11 670.237 1532.14 663.459 1528.51 661.28C1524.75 659.222 1534.32 651.839 1534.32 651.839Z" fill="#F7A491"/>
<path d="M1536.5 656.801C1535.9 659.827 1534.68 662.732 1533.11 665.395C1531.66 663.822 1529.96 662.248 1528.51 661.401C1526.81 660.433 1527.9 658.254 1529.6 656.317C1532.02 653.896 1534.32 651.839 1534.32 651.839L1536.87 653.291C1536.99 654.259 1536.62 655.954 1536.5 656.801Z" fill="#F47458"/>
<path d="M1527.29 632.472C1527.54 632.23 1538.32 645.665 1536.99 652.081C1535.65 658.375 1529.11 664.185 1524.51 662.611C1519.42 660.796 1510.09 644.939 1513.48 637.192C1516.87 629.446 1527.29 632.472 1527.29 632.472Z" fill="#F7A491"/>
<path d="M1515.42 628.235C1520.15 625.572 1527.9 624.846 1533.59 627.872C1540.74 631.624 1542.32 640.945 1540.14 646.634C1537.96 652.323 1540.5 655.591 1540.5 655.591L1536.74 653.412C1536.74 653.412 1534.56 650.023 1534.2 647.239C1533.84 644.455 1529.96 645.06 1527.9 643.729C1526.45 642.76 1524.51 639.734 1522.08 638.04C1522.08 638.04 1516.03 637.313 1513 639.008C1507.91 641.792 1508.64 631.987 1515.42 628.235Z" fill="#13375B"/>
<path d="M1531.05 645.907C1531.05 647.965 1532.02 649.539 1533.23 649.539C1534.44 649.539 1535.41 647.965 1535.53 645.907C1535.53 643.85 1534.56 642.276 1533.35 642.276C1532.14 642.276 1531.17 643.85 1531.05 645.907Z" fill="#F7A491"/>
<path d="M1519.9 656.68L1525.6 652.444C1525.6 652.444 1527.05 654.744 1524.63 656.68C1521.72 658.98 1519.9 656.68 1519.9 656.68Z" fill="white"/>
<path d="M1505.49 742.137C1506.94 740.079 1507.55 737.053 1509.48 734.632C1510.33 733.664 1511.3 732.817 1512.39 732.09C1521.96 726.522 1546.92 712.118 1547.89 710.908C1548.98 709.576 1566.07 681.252 1566.07 681.252L1550.8 677.742L1535.9 704.129C1534.69 705.098 1510.94 722.649 1510.94 722.649C1510.94 722.649 1506.21 726.28 1503.67 728.096C1502.46 728.822 1501.24 729.306 1500.03 729.791C1498.58 730.275 1496.03 731.606 1495.43 732.09C1494.82 732.696 1493.61 733.785 1492.88 734.511C1492.16 735.238 1491.19 735.964 1490.82 736.448C1490.46 736.811 1489.98 737.053 1489.49 737.295C1489.01 737.537 1488.89 738.022 1489.13 738.506C1489.25 738.748 1489.49 738.869 1489.73 738.99C1490.46 739.232 1491.43 738.748 1492.04 738.385C1493.73 737.537 1495.91 735.359 1495.91 735.601C1496.03 735.843 1493.85 740.564 1493.73 741.048C1493.61 741.532 1491.07 747.1 1490.95 748.189C1490.82 749.4 1491.55 749.642 1492.04 749.279C1492.52 748.916 1496.4 741.653 1496.4 741.653C1496.4 741.653 1496.88 740.685 1497.13 741.29C1497.37 741.774 1493.73 748.431 1493.37 749.521C1493.01 750.61 1493.25 751.457 1494.34 751.094C1495.55 750.61 1498.94 743.347 1498.94 743.347C1498.94 743.347 1499.43 742.379 1499.67 742.742C1499.91 743.105 1496.88 748.552 1496.76 749.279C1496.76 749.884 1497.37 750.61 1498.09 750.005C1499.06 749.4 1502.09 742.863 1502.09 742.863C1502.09 742.863 1502.46 742.5 1502.58 742.742C1502.7 742.984 1500.4 747.947 1500.52 748.673C1500.52 749.037 1500.88 749.279 1501.12 749.158C1502.46 749.4 1504.03 744.195 1505.49 742.137Z" fill="#F8A492"/>
<path d="M1562.07 696.383C1562.07 696.383 1557.1 694.809 1553.83 693.356C1551.65 692.388 1542.32 687.789 1542.32 687.789C1542.32 687.789 1546.32 670.842 1549.1 664.669C1559.04 642.276 1570.43 657.649 1572 661.401C1575.39 669.269 1562.07 696.383 1562.07 696.383Z" fill="white"/>
<path d="M1213.97 637.676L1218.7 634.166C1218.7 634.166 1220.03 636.103 1217.97 637.676C1215.43 639.734 1213.97 637.676 1213.97 637.676Z" fill="white"/>
<path d="M1081.18 272.972C1081.06 272.73 1080.82 272.73 1080.58 272.609C1078.03 272.609 1075.61 272.367 1073.18 272.004C1072.82 272.004 1072.34 271.883 1071.97 271.641C1071.37 271.399 1070.64 271.399 1069.91 271.52C1069.55 271.641 1069.19 271.641 1068.82 271.641C1067.61 271.641 1063.98 270.43 1062.16 270.067C1061.8 269.946 1061.43 269.704 1061.31 269.22C1059.49 262.078 1055.62 246.101 1055.13 240.775C1054.53 233.996 1049.8 203.735 1049.8 203.735L1037.32 207.246C1037.32 207.246 1042.41 229.639 1043.86 240.412C1044.95 248.764 1053.31 266.557 1055.98 271.641C1057.31 275.514 1060.1 275.514 1060.83 275.635C1061.19 275.635 1061.55 275.877 1061.8 276.119C1062.28 276.725 1062.76 277.088 1063.37 277.451C1063.73 277.693 1064.1 278.056 1064.46 278.54C1065.07 279.267 1065.43 280.114 1065.91 280.961C1066.28 281.566 1066.52 281.687 1067.01 281.566C1067.49 281.445 1067.85 280.961 1067.73 280.477C1067.73 279.63 1067.49 278.782 1067.01 278.056C1066.64 277.451 1066.64 276.725 1067.13 276.241C1067.37 275.877 1067.73 275.514 1068.1 275.151C1068.46 274.788 1068.94 274.667 1069.43 274.667C1070.4 274.909 1071.25 275.03 1072.22 275.151L1072.94 275.272L1073.31 275.393C1073.31 275.393 1074.64 275.635 1075.12 275.635C1075.49 275.635 1076.09 275.635 1076.58 275.635C1077.06 275.635 1077.55 275.514 1078.03 275.393C1078.39 275.393 1078.88 275.151 1079.24 274.909C1079.36 274.788 1079.48 274.667 1079.48 274.425C1079.48 274.183 1079.24 274.183 1079.12 274.062C1078.76 274.062 1077.3 273.82 1077.3 273.699C1077.79 273.699 1079.24 273.699 1079.73 273.699C1080.33 273.699 1080.94 273.457 1081.3 272.972C1081.06 273.457 1081.18 273.214 1081.18 272.972Z" fill="#F7A491"/>
<path d="M1042.17 188.242C1048.35 187.153 1053.31 214.508 1053.31 214.508C1053.31 214.508 1039.74 218.382 1036.23 216.324C1036.23 216.324 1032.23 198.773 1030.9 199.378L1042.17 188.242Z" fill="#5E17EB"/>
<path d="M893.746 681.373C894.109 680.163 888.536 679.315 888.172 678.105C887.809 676.895 895.321 676.773 895.563 675.805C896.048 673.868 887.445 675.442 887.567 674.474C887.809 673.626 896.533 671.569 895.684 670.116C894.715 668.542 886.719 673.142 886.476 672.174C886.234 671.205 894.352 668.664 894.109 666.364C893.988 665.153 880.903 672.416 879.328 671.811C877.874 671.205 881.024 665.395 879.691 664.548C878.48 663.701 874.966 676.168 874.118 676.531C873.27 676.895 855.459 687.062 849.159 688.636C848.432 686.457 846.736 683.673 846.009 681.615C842.495 684.157 839.829 685.368 836.195 687.667C838.86 694.325 842.616 701.587 844.433 702.435C850.128 704.977 871.816 686.941 876.178 683.915C880.539 680.889 882.963 681.857 885.992 680.889C889.142 679.921 893.382 682.463 893.746 681.373Z" fill="#F7A491"/>
<path d="M835.589 690.936C835.589 690.936 830.742 669.39 831.59 663.217C832.438 657.043 839.829 651.112 845.039 653.291C850.249 655.47 852.551 685.489 852.551 685.489L835.589 690.936Z" fill="#04CC47"/>
</svg>
