<svg id="wave" style="transform:rotate(0deg); transition: 0.3s" viewBox="0 0 1440 490" version="1.1" xmlns="http://www.w3.org/2000/svg">
  <defs>
    <linearGradient id="sw-gradient-0" x1="0" x2="0" y1="1" y2="0">
      <stop stop-color="rgba(38, 44, 51, 1)" offset="0%"></stop>
      <stop stop-color="rgba(38, 44, 51, 1)" offset="100%"></stop>
    </linearGradient>
  </defs>
  <path style="transform:translate(0, 0px); opacity:1" fill="url(#sw-gradient-0)" d="M0,343L48,326.7C96,310,192,278,288,261.3C384,245,480,245,576,245C672,245,768,245,864,204.2C960,163,1056,82,1152,40.8C1248,0,1344,0,1440,32.7C1536,65,1632,131,1728,171.5C1824,212,1920,229,2016,220.5C2112,212,2208,180,2304,187.8C2400,196,2496,245,2592,294C2688,343,2784,392,2880,351.2C2976,310,3072,180,3168,114.3C3264,49,3360,49,3456,57.2C3552,65,3648,82,3744,138.8C3840,196,3936,294,4032,343C4128,392,4224,392,4320,383.8C4416,376,4512,359,4608,351.2C4704,343,4800,343,4896,343C4992,343,5088,343,5184,351.2C5280,359,5376,376,5472,334.8C5568,294,5664,196,5760,138.8C5856,82,5952,65,6048,57.2C6144,49,6240,49,6336,65.3C6432,82,6528,114,6624,138.8C6720,163,6816,180,6864,187.8L6912,196L6912,490L6864,490C6816,490,6720,490,6624,490C6528,490,6432,490,6336,490C6240,490,6144,490,6048,490C5952,490,5856,490,5760,490C5664,490,5568,490,5472,490C5376,490,5280,490,5184,490C5088,490,4992,490,4896,490C4800,490,4704,490,4608,490C4512,490,4416,490,4320,490C4224,490,4128,490,4032,490C3936,490,3840,490,3744,490C3648,490,3552,490,3456,490C3360,490,3264,490,3168,490C3072,490,2976,490,2880,490C2784,490,2688,490,2592,490C2496,490,2400,490,2304,490C2208,490,2112,490,2016,490C1920,490,1824,490,1728,490C1632,490,1536,490,1440,490C1344,490,1248,490,1152,490C1056,490,960,490,864,490C768,490,672,490,576,490C480,490,384,490,288,490C192,490,96,490,48,490L0,490Z"></path>
</svg>